<svg width="16" height="16" viewBox="0 0 16 16" fill="none" xmlns="http://www.w3.org/2000/svg">
<circle cx="8" cy="8" r="8" transform="rotate(180 8 8)" fill="white"/>
<g clip-path="url(#clip0_208_498)">
<path fill-rule="evenodd" clip-rule="evenodd" d="M3.23764 8.11861C3.23764 8.21333 3.27527 8.30417 3.34225 8.37115C3.40922 8.43812 3.50006 8.47575 3.59478 8.47575L12.0184 8.47575L9.7705 10.7229C9.73729 10.7561 9.71095 10.7955 9.69298 10.8389C9.67501 10.8823 9.66576 10.9288 9.66576 10.9757C9.66576 11.0227 9.67501 11.0692 9.69298 11.1126C9.71095 11.156 9.73729 11.1954 9.7705 11.2286C9.80371 11.2618 9.84313 11.2882 9.88651 11.3061C9.9299 11.3241 9.9764 11.3333 10.0234 11.3333C10.0703 11.3333 10.1168 11.3241 10.1602 11.3061C10.2036 11.2882 10.243 11.2618 10.2762 11.2286L13.1334 8.37146C13.1666 8.33829 13.193 8.29888 13.211 8.25549C13.229 8.2121 13.2383 8.16558 13.2383 8.11861C13.2383 8.07163 13.229 8.02512 13.211 7.98173C13.193 7.93834 13.1666 7.89893 13.1334 7.86575L10.2762 5.00861C10.243 4.9754 10.2036 4.94906 10.1602 4.93109C10.1168 4.91312 10.0703 4.90387 10.0234 4.90387C9.9764 4.90387 9.9299 4.91312 9.88651 4.93109C9.84313 4.94906 9.8037 4.9754 9.7705 5.00861C9.73729 5.04181 9.71095 5.08123 9.69298 5.12462C9.67501 5.168 9.66576 5.2145 9.66576 5.26146C9.66576 5.30842 9.67501 5.35492 9.69298 5.39831C9.71095 5.4417 9.73729 5.48112 9.7705 5.51432L12.0184 7.76146L3.59478 7.76146C3.50006 7.76146 3.40922 7.79909 3.34225 7.86607C3.27527 7.93305 3.23764 8.02389 3.23764 8.11861Z" fill="#FF9416"/>
</g>
<defs>
<clipPath id="clip0_208_498">
<rect width="11.4286" height="11.4286" fill="white" transform="translate(13.7144 13.7143) rotate(180)"/>
</clipPath>
</defs>
</svg>
