<svg width="69" height="70" viewBox="0 0 69 70" fill="none" xmlns="http://www.w3.org/2000/svg">
<g clip-path="url(#clip0_1483_126453)">
<rect y="0.807373" width="68.8074" height="68.8074" rx="13.7615" fill="#4390C8"/>
<path d="M38.894 38.7546L57.5787 27.9723L53.0338 25.3382L38.8804 34.0595C38.2799 36.1887 38.2799 37.7446 38.8804 38.7546H38.894Z" fill="#094559"/>
<path d="M38.3477 38.2777L56.6911 27.6866V22.9915L38.0065 33.7738C37.406 35.9029 37.7608 37.2677 38.3613 38.2641L38.3477 38.2777Z" fill="#F4C099"/>
<path d="M38.8931 38.7557L11.3097 22.828C10.7637 21.6269 10.7637 20.0574 11.3097 18.1329L38.8931 34.0606C38.3062 35.8622 38.3062 37.4181 38.8931 38.7557Z" fill="#1390BA"/>
<path d="M11.3106 18.1329L38.894 34.0605L57.5786 23.2783L29.9952 7.33698L11.3106 18.1329Z" fill="#094559"/>
<path d="M37.9925 33.4186L56.6772 22.6227L52.1323 19.9886L37.9789 28.7099C37.3784 30.8391 37.3784 32.395 37.9789 33.405L37.9925 33.4186Z" fill="#A61539"/>
<path d="M37.4475 32.9274L55.7909 22.3363V17.6412L37.1063 28.4371C36.5057 30.5663 36.8606 31.9311 37.4611 32.9274H37.4475Z" fill="#F4C099"/>
<path d="M10.4095 17.478L37.9929 33.4057C37.406 32.0682 37.406 30.5123 37.9929 28.7107L10.4095 12.7966C9.86352 14.7211 9.86352 16.2906 10.4095 17.4917V17.478Z" fill="#E6454A"/>
<path d="M10.4085 12.7959L37.9919 28.7236L56.6765 17.9277L29.0931 2L10.4085 12.7959Z" fill="#A61539"/>
<path d="M37.9938 25.871C37.9938 25.871 37.9119 25.871 37.8846 25.8437L15.5967 12.9733C15.5967 12.9733 15.4875 12.8641 15.4875 12.7822C15.4875 12.7003 15.5285 12.6321 15.5967 12.5912L28.9722 4.86616C28.9722 4.86616 29.1223 4.82521 29.1905 4.86616L51.4784 17.7366C51.4784 17.7366 51.5876 17.8458 51.5876 17.9277C51.5876 18.0096 51.5466 18.0778 51.4784 18.1188L38.1029 25.8437C38.1029 25.8437 38.0347 25.871 37.9938 25.871ZM16.1563 12.7959L37.9938 25.407L50.9324 17.9413L29.095 5.31656L16.1563 12.7822V12.7959Z" fill="#FBB03B"/>
<path d="M33.3392 26.0217L32.1928 25.3529C31.6059 27.1408 31.6059 28.7104 32.1928 30.048L33.3392 30.7167C32.7523 29.3792 32.7523 27.8233 33.3392 26.0217Z" fill="#FBB03B"/>
<path d="M35.1675 27.085L34.0211 26.4163C33.4342 28.2042 33.4342 29.7738 34.0211 31.1113L35.1675 31.7801C34.5806 30.4425 34.5806 28.8866 35.1675 27.085Z" fill="#FBB03B"/>
<path d="M22.6383 13.4509L23.4708 12.9732L27.0467 15.0478L28.1522 14.4063L28.8619 14.8157L26.9239 15.9349L22.6383 13.4645V13.4509Z" fill="#FBB03B"/>
<path d="M29.0943 13.5466L29.8859 14.2291L29.0807 14.6931L25.7231 11.6768L26.7195 11.1036L31.8376 13.0962L31.0324 13.5603L29.8723 13.0962L29.1079 13.5466H29.0943ZM29.1352 12.7687L28.098 12.3319C27.7977 12.2091 27.3064 11.9907 26.9788 11.8542C27.1972 12.059 27.5793 12.3456 27.7841 12.523L28.5211 13.1235L29.1352 12.7687Z" fill="#FBB03B"/>
<path d="M32.6294 12.6316L27.6068 10.5843L28.4666 10.0794L30.3911 10.9529C30.937 11.1985 31.4693 11.4578 32.0425 11.7308C31.5921 11.376 31.2236 11.062 30.8005 10.7072L29.3947 9.54707L30.0635 9.15126L32.0425 9.95652C32.6021 10.1885 33.1617 10.4206 33.7622 10.7208C33.2709 10.3523 32.8614 10.0657 32.4247 9.73814L30.937 8.63262L31.7559 8.16858L35.2908 11.0757L34.431 11.567L32.7659 10.8983C32.3018 10.7072 31.7422 10.4615 31.169 10.2022C31.5921 10.557 32.0016 10.871 32.3291 11.1576L33.4483 12.1266L32.6157 12.6043L32.6294 12.6316Z" fill="#FBB03B"/>
<path d="M38.9618 12.4413L29.0121 18.1873L27.9066 17.5458L37.8563 11.7998L38.9618 12.4413Z" fill="#FBB03B"/>
<path d="M39.3712 14.0381L32.0283 18.2828L31.2094 17.8051L38.5523 13.5741L39.3712 14.0381Z" fill="#FBB03B"/>
<path d="M0.301453 44.7432C0.301453 44.7432 0.383343 44.7159 0.396991 44.6749L6.15662 29.3068C6.15662 29.3068 6.15661 29.184 6.08837 29.1703C6.03378 29.1567 5.96554 29.1703 5.95189 29.2386L0.192266 44.6067C0.192266 44.6067 0.192267 44.7295 0.260509 44.7432C0.260509 44.7432 0.287805 44.7432 0.301453 44.7432Z" fill="#382007"/>
<path d="M9.5702 54.0249C9.67939 53.206 10.3618 52.0186 10.7713 51.1451C11.1534 50.3399 11.9041 49.6848 12.6547 49.2344C13.3235 48.8386 14.0878 48.5246 14.9204 48.2926C15.4254 48.006 16.0122 47.8013 16.6401 47.6784C16.6401 47.6784 17.2133 46.3682 17.227 46.3409C17.227 43.3792 17.2406 45.0852 17.2543 42.3283C17.2543 39.6805 17.2679 36.9508 17.2815 34.2348V20.9412C17.2952 19.2352 17.3088 14.9223 17.3225 13.2026C17.3225 13.1616 17.3225 13.107 17.3361 13.0797C17.3498 13.0252 17.8821 11.3737 17.923 11.2372C17.9776 11.1417 18.0049 11.1144 18.0595 11.0871C18.2506 10.9779 18.5781 10.9642 18.7692 11.0871C18.8511 11.128 18.9057 11.1963 18.9194 11.2509L19.4926 13.0934C19.4926 13.148 19.5062 13.1753 19.5062 13.2026L19.4243 46.3409C19.4926 46.491 19.943 47.542 19.9976 47.6921C20.6118 47.8286 21.1986 48.0333 21.7036 48.3063C23.1094 48.7021 24.5971 49.4254 25.4569 50.5719C25.7572 50.9677 26.8218 53.0969 26.9719 53.7929C27.3541 55.5536 26.1394 57.0139 24.6107 57.942C21.2669 59.962 15.712 60.0166 12.2316 58.0649C10.6757 57.205 9.33818 55.7719 9.55656 54.0249H9.5702Z" fill="#CC8B7C"/>
<path d="M9.87008 53.028C10.1703 52.4001 10.4706 51.7723 10.7845 51.1445C10.0339 52.7004 10.7436 54.4337 12.9 55.6348C16.0119 57.3681 20.9662 57.3272 23.9552 55.5256C25.9342 54.3382 26.5621 52.6731 25.8524 51.1854C25.8933 51.2537 26.7122 53.0007 26.7531 53.0689C27.5448 54.734 26.8487 56.5902 24.624 57.9277C21.2801 59.9477 15.7252 60.0023 12.2449 58.0506C9.82914 56.6994 9.03753 54.7613 9.87008 53.0143V53.028Z" fill="#5E3930"/>
<path d="M12.8993 51.8409L13.4861 49.8619C13.2268 50.7627 13.7045 51.7181 14.9192 52.4005C16.8709 53.4924 19.9828 53.4651 21.8526 52.3322C22.9718 51.6635 23.3949 50.749 23.1492 49.9028C23.7907 52.1139 24.3776 53.3422 22.2621 54.6115C20.1602 55.8808 16.6935 55.9081 14.4961 54.6934C13.1313 53.9291 12.5853 52.8645 12.8856 51.8545L12.8993 51.8409Z" fill="#5E3930"/>
<path d="M20.2966 51.4593C19.2457 52.0871 17.5123 52.1144 16.4205 51.5002C15.6835 51.0907 15.4241 50.5039 15.6562 49.9579C15.6971 49.876 17.2257 46.3548 17.2667 46.2592C17.1711 46.4776 17.2667 46.7096 17.5669 46.8734C18.0037 47.1191 18.6998 47.1054 19.1229 46.8597C19.3958 46.696 19.4777 46.4776 19.3958 46.2729C21.0609 50.1627 21.6478 50.654 20.2966 51.4593Z" fill="#5E3930"/>
<path d="M6.6753 42.4507C6.6753 42.4507 6.78448 42.3961 6.78448 42.3415L6.18396 29.28C6.18396 29.28 6.12936 29.1708 6.07477 29.1708C6.02017 29.1708 5.96558 29.2254 5.96558 29.28L6.56611 42.3415C6.56611 42.3415 6.6207 42.4507 6.6753 42.4507Z" fill="#382007"/>
<path d="M25.8659 30.0849C25.8659 30.0849 25.9478 30.0576 25.9614 30.0167L31.7211 14.6486C31.7211 14.6486 31.7211 14.5258 31.6528 14.5121C31.5982 14.4848 31.53 14.5121 31.5163 14.5803L25.7567 29.9484C25.7567 29.9484 25.7567 30.0713 25.825 30.0849C25.825 30.0849 25.8523 30.0849 25.8659 30.0849Z" fill="#382007"/>
<path d="M32.2256 27.779C32.2256 27.779 32.3347 27.7244 32.3347 27.6698L31.7342 14.6083C31.7342 14.6083 31.6796 14.4991 31.625 14.4991C31.5704 14.4991 31.5158 14.5537 31.5158 14.6083L32.1164 27.6698C32.1164 27.6698 32.171 27.779 32.2256 27.779Z" fill="#382007"/>
<path d="M4.94331 29.266C5.03885 29.1841 5.14803 29.1704 5.17533 29.266C5.22992 29.4025 5.31182 29.498 5.4483 29.5389C5.57113 29.5799 5.73491 29.5526 5.89869 29.4707C6.06248 29.3888 6.22626 29.2523 6.37639 29.0886C6.52652 28.9248 6.63571 28.72 6.73125 28.5153L6.75854 28.4471C7.61839 27.4371 8.49189 26.5499 9.37904 25.731C10.2662 24.8985 11.1806 24.1478 12.1087 23.4108C13.9512 21.9641 15.8211 20.6811 17.6909 19.4937C17.7728 19.4391 17.8683 19.3845 17.9502 19.3299V18.4155C17.9502 18.0061 18.2778 17.4738 18.7009 17.2417L18.8374 17.1599C19.2468 16.9278 19.588 17.0643 19.588 17.4738V18.3882C19.6699 18.3473 19.7655 18.2927 19.8474 18.2517C21.7172 17.269 23.587 16.3955 25.4296 15.7131C26.344 15.3719 27.2721 15.0716 28.1592 14.8806C29.0464 14.6758 29.9199 14.553 30.7388 14.5667C30.9026 14.7031 31.0254 14.7577 31.1619 14.7577C31.312 14.7577 31.4758 14.7031 31.6396 14.594C31.8034 14.4848 31.9671 14.321 32.09 14.1436C32.2128 13.9661 32.3083 13.7614 32.3629 13.5567C32.3902 13.4338 32.4994 13.3247 32.595 13.2974C32.6905 13.2701 32.7451 13.3383 32.7178 13.4611C32.6496 13.7205 32.5267 14.0071 32.3356 14.28C32.1582 14.5394 31.9262 14.785 31.6805 14.9488C31.4348 15.1126 31.1892 15.1945 30.9844 15.1945C30.7934 15.1945 30.6432 15.1262 30.5341 15.0171C28.8826 15.1945 27.1083 15.795 25.3067 16.532C23.4915 17.2827 21.6626 18.1835 19.8201 19.1662C19.7518 19.2071 19.6836 19.2481 19.6017 19.289V19.3982C19.6017 19.8076 19.2741 20.3399 18.851 20.5719L18.7145 20.6538C18.3051 20.8859 17.9639 20.7494 17.9639 20.3399V20.2307C17.8956 20.2717 17.8274 20.3126 17.7455 20.3672C15.903 21.5137 14.0604 22.7284 12.2588 24.0659C10.4573 25.3898 8.68297 26.8639 7.03151 28.5836C6.92233 28.8292 6.75854 29.0749 6.58112 29.2933C6.37639 29.5389 6.13072 29.73 5.88505 29.8529C5.63938 29.9757 5.40735 30.003 5.22993 29.9484C5.0525 29.8938 4.91601 29.7437 4.84777 29.5662C4.82047 29.4844 4.87506 29.3479 4.9706 29.2523L4.94331 29.266Z" fill="#5E3930"/>
<path d="M18.3313 19.8622C18.3313 20.0943 18.5224 20.1762 18.7545 20.0397C18.9865 19.9032 19.1776 19.6029 19.1776 19.3573C19.1776 19.1116 18.9865 19.0433 18.7545 19.1798C18.5224 19.3163 18.3313 19.6166 18.3313 19.8622Z" fill="#382007"/>
<path d="M36.1698 33.2658L36.9069 32.4469H26.1246L26.8616 33.2658H36.1698Z" fill="#917861"/>
<path d="M26.5753 32.8973C26.821 33.3068 27.2441 33.6889 27.8036 34.0302C29.8509 35.2176 33.1675 35.2176 35.2147 34.0302C35.788 33.7026 36.1974 33.3204 36.4431 32.8973C36.2384 33.0748 36.0063 33.2249 35.747 33.375C33.3995 34.7262 29.5916 34.7262 27.2441 33.375C26.9847 33.2249 26.7527 33.0611 26.548 32.8973H26.5753Z" fill="#5E3930"/>
<path d="M26.5748 32.8962C26.7795 33.0599 27.0116 33.2237 27.2709 33.3739C29.6184 34.7251 33.4263 34.7251 35.7738 33.3739C36.0332 33.2237 36.2652 33.0599 36.4699 32.8962C38.0941 31.545 37.862 29.6751 35.7738 28.4741C33.4263 27.1229 29.6184 27.1229 27.2709 28.4741C25.1827 29.6751 24.9507 31.545 26.5748 32.8962Z" fill="#5E3930"/>
<path d="M26.5747 32.8965C26.7794 33.0603 27.0115 33.2241 27.2708 33.3742C29.6183 34.7254 33.4262 34.7254 35.7737 33.3742C36.033 33.2241 36.2651 33.0603 36.4698 32.8965C37.1249 31.832 36.7155 30.59 35.2414 29.7438C33.1942 28.5564 29.8776 28.5564 27.8304 29.7438C26.3563 30.59 25.9469 31.832 26.602 32.8965H26.5747Z" fill="#CC8B7C"/>
<path d="M10.6609 47.9376L11.3979 47.1187H0.615653L1.35267 47.9376H10.6609Z" fill="#917861"/>
<path d="M1.06571 47.5691C1.31138 47.9785 1.73448 48.3607 2.29407 48.7019C4.34133 49.8893 7.65789 49.8893 9.70515 48.7019C10.2784 48.3743 10.6878 47.9922 10.9335 47.5691C10.7288 47.7465 10.4968 47.8967 10.2374 48.0468C7.88991 49.398 4.08201 49.398 1.73448 48.0468C1.47516 47.8967 1.24314 47.7329 1.03841 47.5691H1.06571Z" fill="#5E3930"/>
<path d="M1.06585 47.5685C1.27058 47.7322 1.5026 47.896 1.76192 48.0462C4.10944 49.3974 7.91735 49.3974 10.2649 48.0462C10.5242 47.896 10.7562 47.7322 10.9609 47.5685C12.5851 46.2173 12.3531 44.3474 10.2649 43.1464C7.91735 41.7952 4.10944 41.7952 1.76192 43.1464C-0.326287 44.3474 -0.558308 46.2173 1.06585 47.5685Z" fill="#5E3930"/>
<path d="M1.06705 47.5682C1.27177 47.732 1.50379 47.8958 1.76311 48.0459C4.11064 49.3971 7.91854 49.3971 10.2661 48.0459C10.5254 47.8958 10.7574 47.732 10.9621 47.5682C11.6173 46.5037 11.2078 45.2617 9.73377 44.4155C7.68651 43.228 4.36995 43.228 2.32269 44.4155C0.848668 45.2617 0.439217 46.5037 1.09434 47.5682H1.06705Z" fill="#CC8B7C"/>
<path d="M36.4565 33.0063C36.5384 32.9927 36.5793 32.9244 36.5657 32.8698L31.7341 14.581C31.7341 14.581 31.6659 14.4854 31.5977 14.4991C31.5431 14.5127 31.5021 14.581 31.5158 14.6356L36.3473 32.9244C36.3473 32.9244 36.4019 33.0063 36.4565 33.0063Z" fill="#382007"/>
<path d="M10.9075 47.6654C10.9894 47.6518 11.0303 47.5835 11.0167 47.5289L6.18517 29.2401C6.18517 29.2401 6.11693 29.1445 6.04869 29.1582C5.99409 29.1718 5.95314 29.2401 5.96679 29.2947L10.7983 47.5835C10.7983 47.5835 10.8529 47.6654 10.9075 47.6654Z" fill="#382007"/>
<path d="M38.0899 51.781V73.8232C36.3156 80.2106 32.9035 86.2159 32.3576 92.5897C32.3576 95.2785 37.8033 95.8653 39.1818 94.1456C39.7277 89.2049 43.9041 82.4899 46.4427 74.683C48.1215 66.8079 49.5136 58.6461 49.0496 52.0676L38.0899 51.781Z" fill="#0B151A"/>
<path d="M48.8853 52.6405C49.0354 54.8925 45.9645 60.7886 42.4569 63.45C42.3067 68.2406 41.6789 76.5388 40.8736 81.9436C38.335 89.7505 36.0285 97.2298 35.4825 102.171C34.5681 103.317 31.8384 103.767 30.1187 103.14C29.9822 103.085 29.873 103.044 29.7775 102.989C29.7502 102.976 29.7092 102.948 29.6683 102.935C29.0678 102.594 28.6583 102.075 28.6583 101.352C28.6993 95.0734 29.8457 88.7269 31.62 82.3394L31.0877 53.9644V53.1728L48.8853 52.6542V52.6405Z" fill="#1E3A47"/>
<g style="mix-blend-mode:multiply" opacity="0.5">
<path d="M34.8683 82.9261C31.5245 86.9933 30.8148 95.0595 30.1187 103.126C30.0505 103.098 29.9413 103.044 29.7775 102.976C29.7502 102.962 29.7092 102.935 29.6683 102.921C29.0678 102.58 28.6583 102.061 28.6583 101.338C28.6993 95.0595 29.8457 88.713 31.62 82.3255L31.0877 53.9505L35.7145 63.3679C33.64 70.4514 33.9812 72.9491 34.8683 82.9261Z" fill="#162B35"/>
</g>
<path d="M46.9332 21.3594C49.6765 23.6114 49.9904 29.9033 51.1096 35.6084L59.9538 36.0724C61.4141 36.4955 61.0456 39.4572 60.6498 40.399C56.76 42.6509 51.9012 41.8866 47.5883 41.8866C44.1353 40.6856 44.1626 28.8933 42.7977 28.1973L46.9468 21.3594H46.9332Z" fill="#1E3A47"/>
<path d="M60.2145 39.5665C61.1017 39.0069 61.1153 39.1707 61.3883 39.0888L63.6812 38.693C64.3227 38.652 64.9232 38.3245 65.3054 37.8058L65.4828 37.5738C65.9195 37.4646 66.2744 37.1644 66.4382 36.7549L66.7657 35.936L67.4209 34.7895L68.4445 32.6194C68.6765 32.0326 68.2398 32.0053 67.8576 32.2919L66.3153 33.7796L65.4282 34.4074L63.4765 34.2709V33.6431L64.582 32.7559L65.2508 32.3601C65.824 31.9643 65.5647 31.5412 64.9778 31.6777L63.4628 32.1963L61.4429 33.7386L60.1872 36.2363L59.4366 36.4273C58.6859 36.9596 59.1499 39.9213 60.2282 39.5938L60.2145 39.5665Z" fill="#FFB294"/>
<path d="M52.4073 55.3576C51.7522 56.1356 50.9333 56.6952 49.896 56.9818C48.2991 56.6815 47.0025 55.7398 45.9107 54.3204C45.1873 57.6233 43.2083 62.2501 42.3075 62.9325C41.2293 63.8879 38.8271 64.0653 36.3295 63.5057C35.4969 63.3146 34.6644 63.0417 33.8455 62.7005C32.0302 61.9089 30.3924 60.7215 29.3961 59.1109C28.5635 57.2411 30.0785 52.9009 29.9147 47.619L29.1641 40.7129L27.0759 30.3265C29.9693 25.181 33.8591 22.2057 37.5578 19.749H45.9107C47.8214 21.5369 48.8724 24.4167 49.4456 27.9107C49.4456 27.9107 49.35 41.873 49.9506 45.2578C50.5511 48.6426 52.7212 53.597 52.7212 53.597C52.9123 54.1839 52.8167 54.8526 52.4073 55.3303V55.3576Z" fill="#1E3A47"/>
<path d="M41.3648 26.1489H35.182L44.9952 43.6325C47.7795 37.013 48.3937 30.7211 45.0771 23.8014L41.3784 26.1489H41.3648Z" fill="#F2F2F2"/>
<path d="M41.2561 26.368L41.0787 28.7019L42.5664 30.8993C43.085 34.2568 43.9858 37.9146 43.9449 40.5214L45.1459 43.8107L46.3743 40.4805C45.5963 36.386 44.4362 32.6463 43.631 29.9576L43.5354 27.0914L41.9249 26.0814L41.2561 26.3544V26.368Z" fill="#0071BC"/>
<path d="M38.3901 18.8743L35.0326 21.5494C33.3538 26.6948 37.5575 28.7967 40.3008 31.6628L41.9113 27.1725L45.8967 27.9505L44.4363 20.6349L38.3901 18.8743Z" fill="white"/>
<path d="M36.3284 20.5259C33.8444 22.4231 35.182 26.1354 38.0618 29.5339C40.6686 32.6048 44.845 39.429 45.2954 44.4652C42.7022 39.5382 38.1027 33.4237 35.5778 31.663L36.3148 29.8478L34.636 30.23C33.0119 28.0189 32.2476 25.7123 32.4659 23.5286L36.3148 20.5259H36.3284Z" fill="#0B151A"/>
<path d="M42.2794 19.8574C45.8962 23.3378 47.998 37.6959 45.0636 44.0015C48.2983 40.0844 49.3219 34.1746 48.0117 24.9073L47.0427 24.3068L47.3156 23.2968L44.2447 19.5845L42.2794 19.8574Z" fill="#0B151A"/>
<path d="M42.7436 26.382C42.5388 26.7778 42.2659 27.0781 41.911 27.1736C38.4989 28.1836 35.701 24.2801 36.0968 21.9872C36.4107 19.626 36.6018 18.3431 36.6018 18.3431L43.2076 19.9672C43.2076 19.9672 43.2758 20.5814 43.3168 21.4549C43.385 22.9426 43.3577 25.1673 42.7572 26.3683L42.7436 26.382Z" fill="#FFB294"/>
<g style="mix-blend-mode:multiply" opacity="0.5">
<path d="M42.7437 26.3807C42.4161 26.5991 42.0613 26.7355 41.6655 26.7355C38.5536 26.7355 37.5573 20.8531 37.5573 20.8531L43.3169 21.4673C43.3852 22.9549 43.3579 25.1796 42.7573 26.3807H42.7437Z" fill="#FFB294"/>
</g>
<path d="M37.1208 19.5028C37.1208 19.5028 37.8305 22.3553 39.1134 23.5973C40.3964 24.8256 42.43 25.4535 43.2079 25.4944C43.9859 25.5353 44.6001 25.4671 45.1051 24.8802C45.6101 24.2933 45.924 18.8476 45.924 18.8476C45.9103 16.7458 45.8694 16.118 45.6237 14.9442C45.2552 13.2245 44.0132 9.40294 38.9906 10.099C36.5748 10.4266 35.0735 12.2009 34.7596 14.33C34.5139 16.0224 35.8651 19.0387 35.8651 19.0387L37.1344 19.5164L37.1208 19.5028Z" fill="#FFB294"/>
<path d="M35.782 19.3664L38.1705 20.6357L38.3479 19.2163C38.3479 18.5338 38.9075 17.9879 39.5899 18.0425C40.7364 18.1244 42.4834 18.0698 44.1758 17.2372C45.7727 16.4456 46.0456 15.3811 46.0456 15.3811C46.8509 12.2829 42.77 9.89441 39.6991 10.0036C35.9731 10.1264 34.4581 12.6377 34.4445 14.8488C34.4445 16.8551 35.7684 19.38 35.7684 19.38L35.782 19.3664Z" fill="black"/>
<path d="M36.3156 17.4424C35.9881 17.2787 35.524 17.3059 35.3056 17.5926C35.1828 17.7563 35.1555 17.9747 35.1828 18.1794C35.2101 18.3842 35.3056 18.5752 35.3875 18.7663C35.5513 19.0939 35.7151 19.4078 35.9062 19.7081C36.0563 19.9537 36.2474 20.2131 36.534 20.2813C36.8206 20.3495 37.1755 20.5543 37.3256 20.2949C37.4894 20.0356 37.4621 19.3532 37.4075 19.0529C37.2847 18.4251 36.8752 17.729 36.2883 17.4424H36.3156Z" fill="#FFB294"/>
<g style="mix-blend-mode:multiply" opacity="0.5">
<path d="M36.3292 63.5179C35.4967 63.3269 34.6641 63.0539 33.8452 62.7127C32.03 61.9211 30.3922 60.7337 29.3959 59.1232C28.5633 57.2533 30.0783 52.9131 29.9145 47.6312L29.1638 40.7251L33.7906 35.8799C33.7906 35.8799 34.2001 38.9508 33.4221 42.7997C35.8788 43.6322 40.3282 45.1882 43.3445 46.9215C45.2143 47.9997 48.7083 51.8895 48.7629 52.8312C48.8039 53.6638 43.7267 53.9368 40.1644 53.1861C37.4484 53.4454 35.2783 54.1142 34.8825 54.783C32.4531 58.9457 36.3292 63.4907 36.3292 63.4907V63.5179Z" fill="#162B35"/>
</g>
<path d="M27.0614 30.3403C24.9868 34.4485 23.5128 38.2836 22.2435 42.3372C21.411 45.0123 22.7758 47.8921 25.3826 48.8885C29.095 50.2942 33.2441 51.2906 38.294 51.7956C39.6589 51.4544 40.7371 47.2234 39.7544 45.9813L30.569 43.511L32.862 39.0616C35.9465 33.9435 30.378 27.0647 27.0477 30.3266L27.0614 30.3403Z" fill="#1E3A47"/>
<path d="M38.9087 50.293C37.8715 50.0883 38.5129 46.6898 39.5229 46.799L40.683 47.1675C41.734 46.799 42.8941 46.4988 44.1224 46.2394L46.9203 46.9765L48.3671 47.7271L49.0222 47.9182C49.8684 48.041 49.7729 48.7644 48.9812 48.9418L47.7529 48.8736L46.0741 48.2321L45.3371 48.587L48.1623 50.7434L50.8238 50.566C51.7655 50.566 51.7655 51.262 51.124 51.4668L50.0322 51.7943L49.418 52.4085L48.7765 52.8453L47.944 53.2001C46.6747 53.2274 45.4463 52.9408 44.3271 52.6269L41.4337 50.9345L38.936 50.293H38.9087Z" fill="#FFB294"/>
</g>
<defs>
<clipPath id="clip0_1483_126453">
<rect y="0.807373" width="68.8074" height="68.8074" rx="13.7615" fill="white"/>
</clipPath>
</defs>
</svg>
