<svg width="69" height="70" viewBox="0 0 69 70" fill="none" xmlns="http://www.w3.org/2000/svg">
<g clip-path="url(#clip0_1483_126001)">
<rect y="0.807373" width="68.8074" height="68.8074" rx="13.7615" fill="#43C0C8"/>
<g clip-path="url(#clip1_1483_126001)">
<path d="M38.2407 -5.35187L13.3102 9.23711L13.1255 59.0982L38.2407 44.5092V-5.35187Z" fill="#FFDEBF" stroke="black" stroke-width="0.369341"/>
<mask id="mask0_1483_126001" style="mask-type:alpha" maskUnits="userSpaceOnUse" x="12" y="-4" width="27" height="66">
<path d="M38.2408 -3.50531L13.3102 11.0837L13.1255 60.9447L38.2408 46.3558V-3.50531Z" fill="#FFDEBF" stroke="black" stroke-width="0.369341"/>
</mask>
<g mask="url(#mask0_1483_126001)">
<path d="M21.9229 53.8781V79.0852C19.8939 86.3898 15.9918 93.2574 15.3675 100.546C15.3675 103.621 21.5951 104.292 23.1716 102.326C23.7959 96.6756 28.572 88.9964 31.4751 80.0686C33.3949 71.0627 34.9869 61.729 34.4562 54.2059L21.9229 53.8781Z" fill="#0B151A"/>
<path d="M34.269 54.8606C34.4407 57.4359 30.9289 64.1786 26.9176 67.2222C26.7459 72.7007 26.0279 82.1904 25.107 88.3712C22.2039 97.2991 19.5661 105.852 18.9418 111.502C17.8961 112.814 14.7744 113.329 12.8078 112.611C12.6517 112.548 12.5269 112.501 12.4176 112.439C12.3864 112.423 12.3396 112.392 12.2928 112.377C11.606 111.986 11.1378 111.393 11.1378 110.566C11.1846 103.386 12.4957 96.1285 14.5247 88.8239L13.916 56.3746V55.4693L34.269 54.8762V54.8606Z" fill="#1E3A47"/>
<g style="mix-blend-mode:multiply" opacity="0.5">
<path d="M18.2395 89.4949C14.4155 94.1462 13.6038 103.371 12.8078 112.595C12.7298 112.564 12.6049 112.501 12.4176 112.423C12.3864 112.408 12.3396 112.376 12.2928 112.361C11.606 111.971 11.1378 111.378 11.1378 110.55C11.1846 103.371 12.4957 96.1128 14.5247 88.8082L13.916 56.3589L19.2072 67.1285C16.8347 75.2291 17.2249 78.0854 18.2395 89.4949Z" fill="#162B35"/>
</g>
<path d="M32.0361 19.0886C35.1734 21.664 35.5324 28.8593 36.8122 35.3835L46.9263 35.9142C48.5964 36.398 48.1749 39.785 47.7223 40.862C43.274 43.4373 37.7175 42.5633 32.7853 42.5633C28.8365 41.1897 28.8677 27.7043 27.3069 26.9083L32.0518 19.0886H32.0361Z" fill="#1E3A47"/>
<path d="M38.2969 57.9678C37.5477 58.8575 36.6113 59.4974 35.425 59.8252C33.5989 59.4818 32.1161 58.4048 30.8675 56.7816C30.0402 60.5588 27.7771 65.8499 26.7469 66.6303C25.5139 67.7229 22.7668 67.9258 19.9106 67.2859C18.9585 67.0674 18.0064 66.7552 17.0699 66.365C14.994 65.4597 13.121 64.1018 11.9816 62.2601C11.0295 60.1217 12.762 55.1584 12.5747 49.118L11.7163 41.2203L9.32825 29.3425C12.6372 23.4583 17.0855 20.0557 21.3153 17.2462H30.8675C33.0526 19.2909 34.2544 22.5842 34.91 26.5799C34.91 26.5799 34.8007 42.547 35.4875 46.4178C36.1742 50.2886 38.6559 55.9544 38.6559 55.9544C38.8744 56.6255 38.7652 57.3903 38.2969 57.9366V57.9678Z" fill="#1E3A47"/>
<path d="M25.6687 24.5656H18.5982L29.8205 44.5597C33.0045 36.9897 33.7069 29.7944 29.9141 21.881L25.6843 24.5656H25.6687Z" fill="#F2F2F2"/>
<path d="M25.5441 24.8158L25.3412 27.4848L27.0425 29.9977C27.6356 33.8373 28.6657 38.0203 28.6189 41.0014L29.9924 44.763L31.3971 40.9546C30.5075 36.2722 29.1808 31.9955 28.2599 28.9207L28.1506 25.643L26.3089 24.488L25.5441 24.8002V24.8158Z" fill="#0071BC"/>
<path d="M22.266 16.246L18.4264 19.3052C16.5066 25.1895 21.3139 27.5931 24.4512 30.8708L26.2929 25.7358L30.8505 26.6254L29.1804 18.2595L22.266 16.246Z" fill="white"/>
<path d="M19.9087 18.1353C17.068 20.3048 18.5976 24.5503 21.8909 28.4367C24.8721 31.9485 29.6482 39.7526 30.1632 45.512C27.1977 39.8774 21.9377 32.885 19.0502 30.8715L19.8931 28.7957L17.9733 29.2327C16.1159 26.7042 15.2419 24.0664 15.4916 21.5691L19.8931 18.1353H19.9087Z" fill="#0B151A"/>
<path d="M26.714 17.3705C30.8501 21.3506 33.2538 37.7703 29.898 44.9813C33.5972 40.5018 34.7678 33.7434 33.2694 23.1455L32.1612 22.4588L32.4734 21.3038L28.9616 17.0583L26.714 17.3705Z" fill="#0B151A"/>
<path d="M27.2455 24.8322C27.0114 25.2849 26.6992 25.6282 26.2934 25.7375C22.3914 26.8925 19.1917 22.4286 19.6444 19.8064C20.0034 17.1062 20.2219 15.639 20.2219 15.639L27.7762 17.4964C27.7762 17.4964 27.8542 18.1988 27.9011 19.1977C27.9791 20.899 27.9479 23.4431 27.2611 24.8166L27.2455 24.8322Z" fill="#FFB294"/>
<g style="mix-blend-mode:multiply" opacity="0.5">
<path d="M27.2453 24.8306C26.8707 25.0804 26.4649 25.2364 26.0123 25.2364C22.4536 25.2364 21.3142 18.5093 21.3142 18.5093L27.9008 19.2117C27.9789 20.913 27.9477 23.4571 27.2609 24.8306H27.2453Z" fill="#FFB294"/>
</g>
<path d="M20.815 16.9653C20.815 16.9653 21.6266 20.2274 23.0938 21.6477C24.5609 23.0524 26.8865 23.7704 27.7762 23.8172C28.6659 23.864 29.3682 23.786 29.9457 23.1149C30.5232 22.4437 30.8822 16.2161 30.8822 16.2161C30.8666 13.8124 30.8198 13.0944 30.5388 11.7521C30.1174 9.78552 28.6971 5.41524 22.9533 6.21126C20.1906 6.58585 18.4738 8.61491 18.1148 11.0498C17.8338 12.9852 19.379 16.4346 19.379 16.4346L20.8306 16.9809L20.815 16.9653Z" fill="#FFB294"/>
<path d="M19.2838 16.8091L22.0152 18.2607L22.2181 16.6374C22.2181 15.857 22.8581 15.2327 23.6385 15.2951C24.9496 15.3888 26.9474 15.3264 28.8828 14.3743C30.709 13.469 31.0211 12.2516 31.0211 12.2516C31.942 8.70851 27.2752 5.97709 23.7633 6.10195C19.5023 6.24243 17.7698 9.11432 17.7542 11.6428C17.7542 13.9372 19.2682 16.8247 19.2682 16.8247L19.2838 16.8091Z" fill="black"/>
<path d="M19.8939 14.6087C19.5193 14.4214 18.9887 14.4526 18.7389 14.7804C18.5985 14.9677 18.5672 15.2174 18.5985 15.4515C18.6297 15.6857 18.7389 15.9042 18.8326 16.1227C19.0199 16.4973 19.2072 16.8563 19.4257 17.1997C19.5974 17.4806 19.8159 17.7772 20.1437 17.8552C20.4714 17.9332 20.8772 18.1674 21.0489 17.8708C21.2362 17.5743 21.205 16.7938 21.1426 16.4505C21.0021 15.7325 20.5339 14.9365 19.8627 14.6087H19.8939Z" fill="#FFB294"/>
<g style="mix-blend-mode:multiply" opacity="0.5">
<path d="M19.9098 67.2999C18.9577 67.0814 18.0056 66.7693 17.0691 66.3791C14.9932 65.4738 13.1203 64.1159 11.9809 62.2741C11.0288 60.1358 12.7613 55.1724 12.574 49.1321L11.7155 41.2344L17.0067 35.6935C17.0067 35.6935 17.4749 39.2053 16.5853 43.6068C19.3947 44.5589 24.483 46.3382 27.9324 48.3205C30.0707 49.5535 34.0664 54.0018 34.1288 55.0788C34.1756 56.0309 28.3694 56.343 24.2957 55.4846C21.1897 55.7811 18.708 56.5459 18.2553 57.3107C15.4771 62.0712 19.9098 67.2687 19.9098 67.2687V67.2999Z" fill="#162B35"/>
</g>
<path d="M9.31116 29.3587C6.93872 34.0568 5.25304 38.4427 3.80149 43.0783C2.84939 46.1375 4.4102 49.4308 7.39136 50.5702C11.6368 52.1778 16.3816 53.3172 22.1567 53.8947C23.7175 53.5045 24.9505 48.666 23.8267 47.2457L13.3224 44.4206L15.9446 39.3323C19.472 33.4793 13.1039 25.6128 9.29555 29.3431L9.31116 29.3587Z" fill="#1E3A47"/>
<path d="M22.8594 52.1761C21.6732 51.942 22.4068 48.0556 23.5618 48.1805L24.8885 48.6019C26.0903 48.1805 27.417 47.8371 28.8217 47.5405L32.0214 48.3834L33.6759 49.2418L34.4251 49.4603C35.3928 49.6008 35.2835 50.428 34.3782 50.6309L32.9735 50.5529L31.0537 49.8193L30.2109 50.2251L33.4417 52.6912L36.4853 52.4883C37.5623 52.4883 37.5623 53.2843 36.8287 53.5184L35.5801 53.893L34.8777 54.5954L34.1441 55.0949L33.192 55.5007C31.7405 55.5319 30.3357 55.2041 29.0559 54.8451L25.7469 52.9097L22.8906 52.1761H22.8594Z" fill="#FFB294"/>
</g>
<g opacity="0.2">
<path d="M9.45887 69.1607C10.4386 69.7257 12.0412 69.7257 13.019 69.1607L44.0691 51.2345C45.0488 50.6695 45.0488 49.7438 44.0691 49.1787L40.3469 47.0302C39.3672 46.4652 37.7665 46.4652 36.7868 47.0302L5.73479 64.9564C4.75507 65.5214 4.75507 66.4472 5.73479 67.0122L9.45887 69.1607Z" fill="black"/>
</g>
<path d="M29.2474 52.0577C29.7604 51.7607 30.177 51.9998 30.1789 52.588L30.1828 53.8165C30.1828 54.4067 29.7701 55.126 29.2571 55.4211L22.3296 59.421C21.8147 59.718 21.3981 59.4808 21.3962 58.8887L21.3923 57.6602C21.3923 57.0701 21.805 56.3526 22.32 56.0556L29.2474 52.0558V52.0577Z" fill="white"/>
<path d="M29.2475 51.7588C29.9032 51.3808 30.4374 51.6855 30.4412 52.4376L30.4451 53.6661C30.447 54.4202 29.9167 55.3421 29.261 55.7201L22.3335 59.72C21.6778 60.098 21.1417 59.7932 21.1397 59.0392L21.1359 57.8107C21.1339 57.0585 21.6662 56.1367 22.3219 55.7567L29.2494 51.7569L29.2475 51.7588ZM30.1847 53.8166L30.1809 52.5881C30.1809 51.9979 29.7624 51.7607 29.2494 52.0577L22.3219 56.0576C21.807 56.3546 21.3924 57.072 21.3943 57.6622L21.3982 58.8907C21.3982 59.4827 21.8167 59.72 22.3316 59.423L29.259 55.4231C29.772 55.1261 30.1867 54.4087 30.1847 53.8166Z" fill="#BCBEC0"/>
<path d="M30.077 -3.54715C30.3297 -3.6918 30.536 -3.57608 30.536 -3.28487C30.536 -2.99558 30.3316 -2.64072 30.0789 -2.49608L21.1805 2.64165C20.9279 2.78822 20.7215 2.67058 20.7215 2.38129C20.7215 2.09008 20.924 1.73715 21.1786 1.59057L30.077 -3.54715Z" fill="#454647"/>
<path d="M40.2364 -8.78098C40.2325 -10.1541 39.2586 -10.7096 38.0648 -10.0191L13.1823 4.34684C11.9846 5.03727 11.0184 6.71128 11.0223 8.08635L11.1843 65.4017C11.1881 66.7749 12.1621 67.3303 13.3578 66.6399L38.2403 52.2739C39.436 51.5835 40.4022 49.9095 40.3984 48.5363L40.2364 -8.77905V-8.78098ZM32.1171 -4.72325C32.3697 -4.86982 32.5761 -4.75218 32.5761 -4.46097C32.5761 -4.17168 32.3736 -3.81875 32.119 -3.67218C31.8663 -3.52753 31.6619 -3.64325 31.66 -3.93254C31.66 -4.22375 31.8625 -4.57668 32.1151 -4.72325M21.1762 1.59091L30.0747 -3.54682C30.3273 -3.69146 30.5337 -3.57575 30.5337 -3.28453C30.5337 -2.99525 30.3293 -2.64039 30.0766 -2.49575L21.1782 2.64198C20.9255 2.78855 20.7192 2.67091 20.7192 2.38162C20.7192 2.09041 20.9217 1.73748 21.1762 1.59091ZM29.255 55.7222L22.3276 59.7221C21.6719 60.1001 21.1357 59.7953 21.1338 59.0413L21.13 57.8128C21.128 57.0606 21.6603 56.1388 22.316 55.7588L29.2435 51.759C29.8992 51.381 30.4334 51.6857 30.4373 52.4378L30.4411 53.6663C30.4431 54.4204 29.9127 55.3423 29.255 55.7203M13.1129 59.0104L12.9721 9.24157L38.2962 -5.37704L38.437 44.3918L13.1148 59.0123" fill="white"/>
<path d="M32.6686 43.1882C32.7477 43.1419 32.821 43.1515 32.8576 43.2094C32.8576 43.2113 32.8595 43.2132 32.8615 43.2152L33.0138 43.4871C33.0832 43.6105 32.981 43.8574 32.821 43.95L32.2019 44.3067C32.0437 44.3974 31.9396 44.2682 32.009 44.0657L32.1595 43.6183C32.1595 43.6183 32.1614 43.6125 32.1633 43.6086C32.2 43.5083 32.2713 43.4138 32.3504 43.3695L32.6647 43.1882H32.6686Z" fill="#808285"/>
<path d="M32.5045 40.9587C32.8034 40.7852 33.0464 40.924 33.0484 41.2692V42.2027C33.0522 42.546 32.8092 42.9664 32.5103 43.138C32.2114 43.3116 31.9684 43.1708 31.9684 42.8275V41.8941C31.9645 41.5508 32.2056 41.1323 32.5045 40.9587Z" fill="#808285"/>
<path d="M32.5009 39.6454C33.8953 38.8411 35.0273 39.4872 35.0312 41.0879C35.035 42.4765 34.1884 44.1274 33.0544 45.0647C32.8808 45.2074 32.7015 45.3347 32.5163 45.4407C31.1239 46.2449 29.9899 45.5989 29.986 43.9982C29.9822 42.5903 30.852 40.9144 32.0072 39.9829C32.1673 39.8536 32.3312 39.7399 32.499 39.6434L32.5009 39.6454ZM33.3321 42.0792V41.4582C33.3302 41.3927 33.2839 41.3695 33.228 41.4004C33.172 41.4312 33.1277 41.5103 33.1277 41.5739V42.1949C33.1296 42.5864 32.8538 43.0667 32.5125 43.2634C32.1711 43.4601 31.8934 43.3 31.8915 42.9085V42.2875C31.8895 42.2219 31.8433 42.1988 31.7873 42.2297C31.7314 42.2624 31.687 42.3396 31.687 42.4032V43.0242C31.689 43.4022 31.8857 43.6182 32.1673 43.6047C32.1673 43.6086 32.1653 43.6105 32.1634 43.6144L32.013 44.0618C31.9435 44.2643 32.0477 44.3935 32.2058 44.3029L32.8249 43.9461C32.983 43.8535 33.0853 43.6067 33.0178 43.4832L32.8654 43.2113C32.8654 43.2113 32.8635 43.2074 32.8615 43.2055C33.1431 42.8931 33.336 42.4534 33.336 42.0754M31.9705 41.8902V42.8237C31.9744 43.1669 32.2155 43.3077 32.5163 43.1342C32.8153 42.9606 33.0583 42.5421 33.0563 42.1988V41.2654C33.0525 40.9221 32.8095 40.7832 32.5105 40.9549C32.2116 41.1284 31.9705 41.5469 31.9725 41.8902" fill="white"/>
<path d="M33.2261 41.4026C33.282 41.3698 33.3283 41.3949 33.3283 41.4605V42.0815C33.3302 42.4595 33.1374 42.8992 32.8558 43.2116C32.8172 43.1537 32.7459 43.1441 32.6668 43.1904L32.3524 43.3717C32.2734 43.418 32.202 43.5105 32.1654 43.6108C31.8838 43.6224 31.6871 43.4083 31.6871 43.0303V42.4093C31.6851 42.3437 31.7314 42.2666 31.7854 42.2357C31.8414 42.203 31.8876 42.228 31.8876 42.2936V42.9146C31.8896 43.3061 32.1692 43.4662 32.5086 43.2695C32.85 43.0727 33.1277 42.5925 33.1258 42.201V41.58C33.1239 41.5145 33.1701 41.4373 33.2241 41.4065L33.2261 41.4026Z" fill="#808285"/>
<path d="M25.9821 45.5838C26.6957 45.1711 27.2762 45.3948 27.2781 46.0833C27.2781 46.199 27.1817 46.3513 27.0602 46.4208L26.5935 46.6908C26.4527 46.7718 26.3408 46.7274 26.3389 46.5924V46.3398C26.3389 46.1971 26.2174 46.1508 26.0689 46.2356L25.4537 46.5905C25.3033 46.6773 25.1856 46.8644 25.1856 47.0051V47.2578C25.1856 47.3928 25.0738 47.5683 24.933 47.6473L24.4663 47.9173C24.3448 47.9868 24.2464 47.9482 24.2464 47.8325C24.2445 47.144 24.823 46.253 25.5366 45.8403L25.9821 45.5838Z" fill="white"/>
<path d="M25.755 43.5411C27.1493 42.7369 28.2814 43.383 28.2853 44.9856C28.2891 46.5864 27.1648 48.5361 25.7704 49.3404C24.378 50.1446 23.244 49.4985 23.2401 47.8978C23.2363 46.2971 24.3626 44.3453 25.755 43.5411ZM27.0626 46.4205C27.1841 46.3511 27.2805 46.2006 27.2805 46.083C27.2786 45.3945 26.6981 45.1708 25.9845 45.5835L25.539 45.84C24.8254 46.2527 24.2468 47.1456 24.2488 47.8322C24.2488 47.9479 24.3471 47.9865 24.4686 47.9171L24.9353 47.6471C25.0742 47.5661 25.188 47.3906 25.188 47.2575V47.0049C25.188 46.8621 25.3056 46.677 25.4561 46.5902L26.0713 46.2353C26.2198 46.1505 26.3413 46.1968 26.3413 46.3395V46.5921C26.3413 46.7271 26.4551 46.7715 26.5958 46.6905L27.0626 46.4205Z" fill="#FF4D53"/>
<path d="M19.5025 47.2074C20.6596 46.8043 21.5352 47.4735 21.5391 48.8814C21.5429 50.4821 20.4186 52.4319 19.0242 53.2361C18.8391 53.3422 18.6597 53.4232 18.4861 53.481C17.3502 53.8533 16.4978 53.1821 16.4939 51.7955C16.49 50.1948 17.6163 48.243 19.0088 47.4388C19.1785 47.3405 19.3424 47.2652 19.5025 47.2093V47.2074ZM19.3848 50.6518L19.381 49.5969C19.381 49.433 19.2633 49.3655 19.1206 49.4484L17.842 50.187C17.6993 50.27 17.5816 50.4705 17.5836 50.6364L17.5874 51.6913C17.5874 51.8572 17.7051 51.9228 17.8478 51.8398L19.1264 51.1012C19.2691 51.0183 19.3868 50.8177 19.3848 50.6518ZM20.4494 49.9209V49.1012C20.4475 48.9971 20.3742 48.9605 20.2893 49.0087C20.2758 49.0164 20.2643 49.026 20.2508 49.0357L19.6182 49.6239C19.5295 49.701 19.4658 49.8303 19.4658 49.9344V50.2218C19.4658 50.3278 19.5295 50.3838 19.6201 50.3548L20.2546 50.2121C20.2662 50.2082 20.2797 50.2025 20.2913 50.1967C20.3761 50.1465 20.4494 50.025 20.4494 49.9228" fill="white"/>
<path d="M20.2889 49.0067C20.3737 48.9585 20.447 48.9951 20.447 49.0993V49.9189C20.4489 50.0211 20.3756 50.1445 20.2908 50.1928C20.2792 50.2005 20.2657 50.2043 20.2541 50.2082L19.6196 50.3509C19.5309 50.3779 19.4673 50.322 19.4673 50.2178V49.9305C19.4673 49.8244 19.529 49.6971 19.6177 49.62L20.2503 49.0318C20.2638 49.0202 20.2754 49.0105 20.2889 49.0048V49.0067Z" fill="#808285"/>
<path d="M19.1205 49.4487C19.2632 49.3657 19.3809 49.4332 19.3809 49.5972L19.3847 50.6521C19.3847 50.8179 19.269 51.0185 19.1263 51.1014L17.8477 51.8401C17.7049 51.923 17.5873 51.8575 17.5873 51.6916L17.5834 50.6367C17.5834 50.4727 17.6991 50.2702 17.8419 50.1873L19.1205 49.4487Z" fill="#808285"/>
<path d="M17.9094 19.407L18.2855 18.4408L18.3645 18.5662L18.1196 20.7262L17.3559 18.8824L17.9094 19.407Z" fill="white"/>
<path d="M20.6998 16.6665C21.4076 16.2576 22.0441 16.462 22.1945 17.2045L22.9235 19.7676L22.6863 19.9026L21.1935 20.7647L21.0913 20.2671L20.3932 16.8805C20.4819 16.8092 20.5706 16.7455 20.6574 16.6915C20.6709 16.6819 20.6863 16.6742 20.6998 16.6665Z" fill="#414042"/>
<path d="M19.9245 17.1142L19.9149 18.6667L19.3691 19.2665L19.7895 19.3205L18.4877 21.6136L19.6005 17.5828L19.7837 17.1952L19.9245 17.1142Z" fill="#58595B"/>
<path d="M22.8812 4.71323L22.9005 11.3167L22.912 15.3493V15.8238L22.9236 19.7677L22.1946 17.2046C22.0442 16.4621 21.4077 16.2577 20.7 16.6665C20.6865 16.6743 20.671 16.6839 20.6575 16.6916L19.9247 17.114L19.7839 17.195L19.3461 17.0696L19.2477 16.4872C19.3037 16.4197 19.3596 16.3503 19.4136 16.275C19.7222 15.8527 19.9517 15.4284 20.131 14.9829C20.1426 14.9559 20.1522 14.9289 20.1638 14.9C20.1985 14.8113 20.2294 14.7225 20.2602 14.6338C20.3316 14.4217 20.3817 14.25 20.428 14.0745C20.4435 14.0649 20.8369 13.8296 21.0452 12.8557C21.0625 12.7689 21.0722 12.7207 21.0799 12.6763C21.1705 12.1344 21.0394 12.0977 20.914 12.1595C20.8485 12.198 20.8118 12.227 20.7867 12.2501C20.8388 11.8856 20.8832 11.4459 20.8542 11.1045C21.186 10.769 21.4482 10.4218 21.5929 10.0727C21.5736 10.0824 21.1917 10.2502 20.9661 10.3061C20.9796 10.2733 21.238 9.66967 21.3171 9.23767C21.3075 9.25117 21.1069 9.51539 20.9102 9.62917C20.8292 9.67546 20.7501 9.69474 20.6903 9.65424C20.484 9.51539 20.0558 8.10945 18.594 8.95224C16.5844 10.1132 16.2122 11.4092 16.2469 12.0534C16.2218 12.0669 15.73 12.3292 16.1697 14.925C16.1427 14.9289 16.0926 14.9424 16.0386 14.9733C15.8959 15.0562 15.7262 15.2722 15.8901 15.8315C16.1042 16.5585 16.4957 16.3445 16.5111 16.3348C16.7252 16.8903 17.0202 17.2509 17.5352 17.3589C17.5988 17.3724 17.6644 17.3801 17.7319 17.3801C17.7145 17.6058 17.6817 17.8275 17.649 18.0127L17.1707 18.7051L17.0299 18.7861L16.324 19.193C16.2835 19.2161 16.27 19.2238 16.2546 19.2335C15.5468 19.6423 14.9142 20.5796 14.7677 21.4938L14.056 24.8881L14.2932 24.7473L15.784 23.8871L15.8843 23.2642V23.8274L21.0934 20.8207V20.2653L21.1937 20.7628L22.6864 19.9008L22.9236 19.7658L19.4811 21.7541L14.0541 24.8861L14.0117 9.83167L22.8793 4.7113L22.8812 4.71323Z" fill="#6CD9C1"/>
<path d="M19.2477 16.4873L19.346 17.0697L19.3036 17.0582L18.4763 17.9511L17.647 18.0147C17.6798 17.8296 17.7125 17.6078 17.7299 17.3822C17.9633 17.3822 18.2198 17.3031 18.4743 17.1546C18.7405 17.0003 19.0066 16.7747 19.2477 16.4873Z" fill="#F2C7AA"/>
<path d="M18.5381 15.1218C18.4957 15.1739 18.4706 15.2414 18.4706 15.2973L18.4764 17.1545C18.7927 16.9713 19.109 16.684 19.3848 16.3156C19.3944 16.3021 19.4041 16.2886 19.4137 16.2751C19.7223 15.8527 19.9518 15.4284 20.1311 14.9829C20.1369 14.9694 20.1408 14.9579 20.1466 14.9444C20.1466 14.9424 20.1485 14.9386 20.1504 14.9367C20.1504 14.9367 20.1504 14.9367 20.1504 14.9347C20.1543 14.9251 20.1581 14.9135 20.162 14.9039C20.162 14.9039 20.162 14.9039 20.162 14.9019C20.162 14.8981 20.1639 14.8962 20.1659 14.8923C20.1678 14.8865 20.1697 14.8807 20.1736 14.873C20.1774 14.8614 20.1832 14.8499 20.1871 14.8383C20.1909 14.8267 20.1967 14.8132 20.2006 14.8017C20.2064 14.7862 20.2121 14.7708 20.2179 14.7515C20.2218 14.7399 20.2256 14.7303 20.2295 14.7187C20.2334 14.7091 20.2372 14.6994 20.2391 14.6898C20.2449 14.6744 20.2488 14.6589 20.2546 14.6454C20.2565 14.6377 20.2584 14.6319 20.2623 14.6242C20.2931 14.5317 20.3201 14.4468 20.3433 14.3677C20.3471 14.3562 20.3491 14.3465 20.3529 14.3349C20.378 14.2501 20.4011 14.1652 20.4243 14.0784L20.6634 12.7246C20.6557 12.119 20.5207 11.6677 20.4532 11.4807C19.8573 11.9937 19.1302 12.4662 18.461 12.8538V13.8027C18.4629 13.82 18.4649 13.8354 18.4706 13.8489L18.7638 14.6975C18.785 14.7573 18.7599 14.8499 18.7021 14.9193L18.5362 15.1237L18.5381 15.1218ZM20.3471 14.3619C20.3491 14.3542 20.3529 14.3446 20.3549 14.3369C20.3529 14.3465 20.3491 14.3542 20.3471 14.3639V14.3619ZM20.3433 14.3754C20.3433 14.3754 20.3433 14.3735 20.3433 14.3716C20.3433 14.3677 20.3452 14.3639 20.3471 14.3619C20.3471 14.3619 20.3471 14.3658 20.3471 14.3677C20.3471 14.3716 20.3471 14.3735 20.3452 14.3774L20.3433 14.3754Z" fill="#F2C7AA"/>
<path d="M19.6296 17.4767L19.6006 17.5828L19.0491 18.7495L18.6691 18.2192L18.6865 18.1671L19.0491 18.5393L19.6296 17.4767Z" fill="#E6E7E8"/>
<path d="M19.3039 17.0583L19.3464 17.0699L19.7841 17.1952L19.6299 17.4768L19.0493 18.5394L18.6868 18.1672L18.4766 17.9512L19.3039 17.0583Z" fill="white"/>
<path d="M18.4766 17.951L18.6868 18.167L18.6694 18.2191L18.4766 17.951Z" fill="#2D2C2E"/>
<path d="M17.3252 18.8094L17.9096 19.1989L18.2683 18.4102L18.2856 18.441L17.9096 19.4072L17.3561 18.8827L17.3252 18.8094Z" fill="#E6E7E8"/>
<path d="M17.647 18.0146L18.4763 17.951L18.268 18.41L17.9093 19.1988L17.3249 18.8092L17.1687 18.7051L17.647 18.0146Z" fill="white"/>
<path d="M17.1687 18.7051L17.3249 18.8093L17.3558 18.8826L17.1687 18.7051Z" fill="#3D3E3F"/>
<path d="M17.1686 18.7051L17.3557 18.8826L18.1194 20.7263L18.4877 21.6134L17.1744 20.8304L17.5929 20.2904L17.0471 20.3213L17.0259 18.7881L17.1686 18.7051Z" fill="#58595B"/>
<path d="M20.8908 12.173C20.8908 12.173 20.9043 12.1653 20.912 12.1614C21.0374 12.0997 21.1705 12.1363 21.0779 12.6783C21.0702 12.7226 21.0605 12.7708 21.0509 12.8229C21.049 12.8345 21.047 12.8461 21.0432 12.8576C20.833 13.8316 20.4415 14.0668 20.426 14.0765V14.0707L20.6652 12.7207C20.6652 12.7959 20.6652 12.8711 20.6613 12.9502C20.6652 12.9348 20.7288 12.6455 20.7847 12.252C20.8117 12.2289 20.8465 12.198 20.8831 12.1768C20.885 12.1768 20.8889 12.173 20.8908 12.173Z" fill="#F2C7AA"/>
<path d="M16.2525 19.2356C16.2679 19.2279 16.2814 19.2183 16.2969 19.2105C16.3837 19.1623 16.4724 19.1238 16.5611 19.0929L15.8861 23.2663L15.7858 23.8893L14.295 24.7494L14.0578 24.8902L14.7694 21.4959C14.916 20.5818 15.5467 19.6445 16.2564 19.2356H16.2525Z" fill="#414042"/>
<path d="M16.0367 14.9752C16.0907 14.9444 16.1409 14.9328 16.1679 14.927C16.1968 15.1025 16.2315 15.2876 16.2701 15.4863C16.2701 15.4824 16.2739 15.4265 16.2797 15.3281L16.5092 16.3368C16.4919 16.3464 16.1023 16.5605 15.8882 15.8334C15.7224 15.2741 15.894 15.0581 16.0367 14.9752Z" fill="#FFD2B3"/>
<path d="M18.5919 8.95427C20.0538 8.10955 20.4819 9.51741 20.6883 9.65627C20.75 9.69677 20.8272 9.67748 20.9082 9.6312C21.1049 9.51741 21.3035 9.2532 21.3151 9.2397C21.236 9.6717 20.9776 10.2773 20.9641 10.3081C21.1878 10.2522 21.5697 10.0844 21.5909 10.0748C21.4462 10.4238 21.1839 10.771 20.8522 11.1066C20.8503 11.0815 20.8484 11.0564 20.8445 11.0313L20.4164 11.3804C20.4164 11.3804 20.4318 11.4132 20.453 11.4768C19.8571 11.9898 19.13 12.4623 18.4608 12.85C17.3789 13.4749 16.5091 13.8528 16.4628 13.8721C16.3644 14.2231 16.3027 14.9946 16.2796 15.3282C16.2719 15.4266 16.2699 15.4825 16.2699 15.4864C16.2314 15.2896 16.1966 15.1026 16.1677 14.9271C15.728 12.3312 16.2198 12.0689 16.2449 12.0554C16.2101 11.4132 16.5804 10.1153 18.5919 8.95427Z" fill="#FF4D53"/>
<path d="M18.5382 15.1221C18.4958 15.1742 18.4707 15.2417 18.4707 15.2976L18.4765 17.1548C18.3126 17.2493 18.1487 17.3149 17.9886 17.3515C17.8304 17.3882 17.6781 17.3901 17.5354 17.3612C17.0224 17.2532 16.7254 16.8925 16.5113 16.3371L16.2818 15.3284C16.3049 14.9948 16.3667 14.2234 16.465 13.8724C16.5113 13.8531 17.3811 13.4751 18.4476 12.8579C18.4514 12.856 18.4572 12.8521 18.463 12.8502V13.7991C18.4649 13.8164 18.4669 13.8319 18.4727 13.8454L18.7658 14.6939C18.787 14.7537 18.7619 14.8463 18.7041 14.9157L18.5382 15.1202V15.1221Z" fill="#FFD2B3"/>
<path d="M19.784 17.1949L19.6008 17.5826L19.6297 17.4765L19.784 17.1949Z" fill="#3D3E3F"/>
<path d="M19.6005 17.5823L18.4877 21.6131L18.8484 20.3055L18.5919 18.4348L18.669 18.2188L19.0489 18.7491L19.6005 17.5823Z" fill="white"/>
<path d="M18.4762 17.951L18.6691 18.2191L18.5919 18.4351L18.8484 20.3058L18.4878 21.6134L18.1194 20.7262L18.3644 18.5662L18.2853 18.4408L18.4762 17.951Z" fill="#323133"/>
<path d="M20.6323 16.7049C20.6323 16.7049 20.6497 16.6953 20.6574 16.6914C20.5706 16.7454 20.4819 16.8071 20.3932 16.8804L21.0913 20.267V20.8224L15.8861 23.8291V23.2659L16.5592 19.0925C16.4705 19.1233 16.3818 19.1619 16.295 19.2101C16.3027 19.2043 16.3123 19.2005 16.32 19.1947L17.0259 18.7878L17.0471 20.3229L17.5929 20.2921L17.1744 20.8321L18.4878 21.6151L19.7895 19.322L19.3691 19.268L19.9149 18.6701L19.9265 17.1176L20.6343 16.7088L20.6323 16.7049Z" fill="#414042"/>
<path d="M20.8447 11.0316C20.8466 11.0567 20.8505 11.0818 20.8524 11.1068C20.8794 11.4482 20.837 11.8879 20.7849 12.2524C20.729 12.6458 20.6653 12.9351 20.6615 12.9505C20.6653 12.8715 20.6653 12.7943 20.6653 12.721C20.6576 12.1155 20.5226 11.6642 20.4551 11.4771C20.432 11.4154 20.4185 11.3826 20.4185 11.3807L20.8466 11.0316H20.8447Z" fill="#FF4D53"/>
<path d="M11.1844 65.3998L8.28767 63.7161L8.12567 6.40076L11.0224 8.0844L11.1844 65.3998Z" fill="#E6E7E8"/>
<path d="M13.1822 4.34685L10.2836 2.66321L35.1661 -11.7028L38.0647 -10.0191L13.1822 4.34685Z" fill="#E6E7E8"/>
<path d="M11.1846 65.3997L8.2879 63.7161C8.2879 64.3988 8.5309 64.879 8.91855 65.1046L11.8153 66.7883C11.4257 66.5626 11.1866 66.0824 11.1846 65.3997Z" fill="#D1D3D4"/>
<path d="M10.0774 2.79447C10.0562 2.8099 10.033 2.82533 10.0118 2.84269C9.96552 2.87547 9.92116 2.91019 9.87488 2.9449C9.84981 2.96419 9.82473 2.9854 9.80159 3.00662C9.76109 3.04133 9.71866 3.07605 9.67816 3.11462C9.65309 3.13776 9.62995 3.15897 9.60488 3.18212C9.58945 3.19755 9.57402 3.20912 9.55859 3.22455C9.54316 3.23998 9.52773 3.25733 9.5123 3.27276C9.46409 3.3229 9.41588 3.37305 9.36766 3.42705C9.35223 3.4444 9.3368 3.45983 9.32138 3.47719C9.3098 3.49069 9.29823 3.50612 9.28473 3.52155C9.2558 3.55433 9.2288 3.58905 9.19988 3.62376C9.18252 3.6469 9.16323 3.66812 9.14395 3.69126C9.12852 3.71055 9.11502 3.72983 9.10152 3.74912C9.0803 3.77612 9.06102 3.80312 9.04173 3.83012C9.02823 3.84941 9.0128 3.86676 8.9993 3.88605C8.97616 3.91883 8.95495 3.95162 8.93373 3.9844C8.92023 4.00562 8.9048 4.02683 8.8913 4.04805C8.88552 4.05769 8.87973 4.06541 8.87395 4.07505C8.83537 4.13483 8.79873 4.19655 8.76209 4.25826C8.76016 4.26212 8.75823 4.26598 8.75437 4.26983C8.74666 4.28141 8.74087 4.29491 8.73316 4.30648C8.70809 4.35084 8.68302 4.39519 8.65795 4.43955C8.64637 4.46076 8.63673 4.48198 8.62709 4.50126C8.61552 4.52248 8.60587 4.54369 8.5943 4.56684C8.58466 4.58612 8.57502 4.60541 8.56537 4.62469C8.5403 4.67483 8.51909 4.72498 8.49595 4.77705C8.49209 4.78669 8.4863 4.79634 8.48245 4.80598C8.48245 4.80791 8.48052 4.81176 8.47859 4.81369C8.45159 4.87734 8.42459 4.94291 8.39952 5.00848C8.39566 5.02005 8.3918 5.03162 8.38602 5.04319C8.37637 5.06634 8.36866 5.09141 8.36095 5.11455C8.34937 5.14734 8.33587 5.18012 8.32623 5.21291C8.31852 5.23798 8.3108 5.26305 8.30309 5.28812C8.29344 5.31705 8.2838 5.34791 8.27609 5.37684C8.2703 5.39612 8.26452 5.41348 8.25873 5.43277C8.24909 5.46555 8.2433 5.49834 8.23366 5.53112C8.22402 5.56777 8.21437 5.60441 8.20666 5.64105C8.20473 5.65455 8.19894 5.66612 8.19702 5.67962C8.19123 5.70662 8.1893 5.73362 8.18352 5.7587C8.17194 5.81655 8.1623 5.87441 8.15459 5.93034C8.15266 5.94577 8.1488 5.96312 8.14687 5.97855C8.14302 6.0152 8.13916 6.04991 8.13723 6.08655C8.1353 6.11162 8.13144 6.1367 8.12952 6.16177C8.12373 6.24277 8.11987 6.32184 8.11987 6.40091L11.0166 8.08456C11.0166 8.00549 11.0205 7.92642 11.0262 7.84542C11.0262 7.82034 11.032 7.79334 11.034 7.76827C11.0397 7.7162 11.0455 7.66413 11.0532 7.61206C11.061 7.5542 11.0725 7.49634 11.0822 7.44041C11.0899 7.40184 11.0957 7.36134 11.1053 7.32277C11.113 7.28613 11.1227 7.24949 11.1323 7.21284C11.1458 7.16077 11.1593 7.11063 11.1728 7.05856C11.1805 7.02963 11.1902 6.99877 11.1998 6.96984C11.2172 6.91198 11.2365 6.85413 11.2577 6.79627C11.2654 6.77313 11.275 6.74805 11.2827 6.72491C11.3117 6.64584 11.3445 6.56677 11.3792 6.4877C11.383 6.47805 11.3888 6.46841 11.3927 6.45877C11.4235 6.38934 11.4563 6.31798 11.491 6.25048C11.5026 6.22927 11.5122 6.20805 11.5238 6.18491C11.5585 6.11934 11.5932 6.05377 11.6299 5.99012C11.6376 5.97855 11.6434 5.96505 11.6511 5.95348C11.6955 5.87827 11.7398 5.80498 11.788 5.7317C11.8015 5.71048 11.817 5.68927 11.8305 5.66805C11.8652 5.61598 11.9018 5.56391 11.9385 5.51377C11.9577 5.48677 11.979 5.45977 11.9982 5.43277C12.0291 5.39034 12.0619 5.34984 12.0947 5.30741C12.1217 5.27269 12.1506 5.23798 12.1795 5.20519C12.2065 5.17434 12.2335 5.14348 12.2625 5.11262C12.3107 5.06055 12.3589 5.00848 12.4071 4.95834C12.438 4.92748 12.4669 4.89662 12.4997 4.86576C12.5247 4.84262 12.5479 4.81948 12.573 4.79633C12.6135 4.75969 12.654 4.72498 12.6945 4.69026C12.7195 4.66905 12.7427 4.64976 12.7677 4.62855C12.8121 4.59191 12.8584 4.55912 12.9047 4.52634C12.9259 4.51091 12.9471 4.49355 12.9702 4.47812C13.0377 4.43184 13.1072 4.38748 13.1766 4.34698L10.2799 2.66333C10.2104 2.70383 10.141 2.74819 10.0735 2.79447H10.0774Z" fill="#D1D3D4"/>
<path d="M9.00914 14.8399C9.00914 14.8399 9.00335 14.8399 8.9995 14.8399C8.96285 14.838 8.92814 14.8399 8.89535 14.8457C8.89535 14.8457 8.8915 14.8457 8.88957 14.8457C8.85678 14.8534 8.82593 14.865 8.797 14.8805L9.23093 14.6278C9.23093 14.6278 9.23286 14.6278 9.23478 14.6259C9.24443 14.6201 9.256 14.6143 9.26757 14.6104C9.27914 14.6066 9.29071 14.6027 9.30228 14.5989C9.31 14.5969 9.31771 14.595 9.32543 14.5931C9.32543 14.5931 9.32928 14.5931 9.33121 14.5931C9.33314 14.5931 9.337 14.5931 9.33893 14.5931C9.35243 14.5912 9.364 14.5892 9.3775 14.5892C9.391 14.5892 9.40643 14.5892 9.41993 14.5892C9.42378 14.5892 9.42957 14.5892 9.43343 14.5892C9.43728 14.5892 9.43921 14.5892 9.44307 14.5892C9.45078 14.5892 9.4585 14.5892 9.46621 14.5912C9.4855 14.5931 9.50286 14.5989 9.52214 14.6027C9.52986 14.6047 9.5395 14.6085 9.54721 14.6104C9.55493 14.6124 9.56264 14.6162 9.57036 14.6182C9.58 14.622 9.58964 14.624 9.59928 14.6278C9.62821 14.6394 9.65907 14.6548 9.68993 14.6722C9.73043 14.6953 9.77093 14.7242 9.81143 14.7551C9.82493 14.7647 9.8365 14.7763 9.84807 14.7879C9.86736 14.8052 9.88664 14.8187 9.904 14.838C9.91171 14.8457 9.91943 14.8554 9.92907 14.8631C9.93679 14.8708 9.94257 14.8785 9.95029 14.8862C9.958 14.8959 9.96764 14.9036 9.97536 14.9132C9.99271 14.9345 10.0101 14.9557 10.0274 14.9769C10.0332 14.9846 10.039 14.9923 10.0448 15C10.0486 15.0039 10.0506 15.0077 10.0544 15.0116C10.0602 15.0193 10.066 15.027 10.0718 15.0347C10.0853 15.0521 10.0969 15.0714 10.1084 15.0907C10.12 15.108 10.1316 15.1273 10.1412 15.1447C10.1412 15.1447 10.1412 15.1466 10.1431 15.1485C10.1431 15.1485 10.1431 15.1504 10.1451 15.1524C10.1547 15.1678 10.1624 15.1832 10.1701 15.1987C10.1798 15.216 10.1894 15.2353 10.1971 15.2527C10.2049 15.2681 10.2126 15.2855 10.2203 15.3028C10.2203 15.3028 10.2203 15.3047 10.2203 15.3067C10.2203 15.3067 10.2203 15.3086 10.2203 15.3105C10.228 15.3298 10.2357 15.3491 10.2434 15.3684C10.2511 15.3877 10.2589 15.4089 10.2646 15.4282C10.2685 15.4378 10.2704 15.4475 10.2743 15.459C10.2743 15.4629 10.2762 15.4687 10.2781 15.4725C10.2801 15.4802 10.282 15.488 10.2859 15.4957C10.2936 15.5207 10.2994 15.5458 10.3032 15.569C10.3071 15.5844 10.309 15.5979 10.3109 15.6133C10.3109 15.621 10.3129 15.6287 10.3148 15.6365C10.3148 15.6442 10.3167 15.65 10.3186 15.6577C10.3244 15.7001 10.3264 15.7425 10.3264 15.783L10.3071 26.3805C10.3071 26.583 10.2338 26.7258 10.12 26.7933L9.68607 27.0459C9.80178 26.9784 9.87314 26.8357 9.87314 26.6332L9.89243 16.0357C9.89243 15.9875 9.88857 15.9373 9.88086 15.8891C9.88086 15.8814 9.87893 15.8737 9.877 15.866C9.86929 15.8197 9.85771 15.7734 9.84421 15.7252C9.84421 15.7213 9.84229 15.7155 9.84036 15.7117C9.82493 15.6615 9.80564 15.6094 9.78443 15.5593C9.78443 15.5593 9.78443 15.5574 9.78443 15.5555C9.76129 15.5053 9.73621 15.4552 9.70921 15.405C9.70921 15.405 9.70921 15.4031 9.70728 15.4012C9.68028 15.353 9.64943 15.3086 9.61664 15.2642C9.61278 15.2604 9.61086 15.2565 9.607 15.2527C9.57807 15.2122 9.54528 15.1755 9.5125 15.1389C9.50478 15.1312 9.499 15.1235 9.49128 15.1157C9.46621 15.0887 9.43728 15.0637 9.41028 15.0405C9.39871 15.029 9.38521 15.0174 9.37364 15.0077C9.33507 14.9769 9.29457 14.9479 9.25214 14.9248C9.21164 14.9017 9.17114 14.8843 9.13257 14.8708C9.12485 14.8689 9.11714 14.865 9.10943 14.8631C9.07278 14.8515 9.03807 14.8438 9.00335 14.8399H9.00914Z" fill="#D1D3D4"/>
<path d="M9.25803 14.925C8.90318 14.7206 8.61389 14.8845 8.61389 15.2934L8.5946 25.8909C8.5946 26.2978 8.88003 26.7954 9.23489 27.0018C9.58975 27.2062 9.87904 27.0403 9.88096 26.6334L9.90025 16.0359C9.90025 15.627 9.61289 15.1295 9.25996 14.925H9.25803Z" fill="white"/>
<path d="M55.6693 50.3818L55.5767 50.5206L54.9518 52.1252L53.8911 53.8089C53.7349 54.0557 53.7908 54.4029 54.0473 54.5475C54.0473 54.5475 54.0512 54.5494 54.0531 54.5514L55.8698 55.5484C55.9759 55.6063 56.0993 55.6314 56.2189 55.6179C56.4793 55.587 56.6953 55.4597 56.865 55.2341L57.8852 54.0191C58.0202 53.859 58.1186 53.67 58.1745 53.4694L58.7222 51.4734C58.9536 50.6518 58.5101 49.7916 57.7078 49.5043C56.9036 49.215 56.0126 49.6007 55.6712 50.3856L55.6693 50.3818Z" fill="#FFD2B3"/>
<path d="M55.5403 50.6941L53.764 52.561C53.6136 52.7153 53.6194 52.9641 53.7775 53.1107C53.928 53.2495 54.1613 53.2457 54.3079 53.101L55.3783 51.9863C55.3783 51.9863 56.3888 52.6285 57.0214 51.7568C57.654 50.8851 56.9096 50.4646 56.7533 50.3817C56.5971 50.2969 56.0861 50.1407 55.5422 50.6961L55.5403 50.6941Z" fill="#FFD2B3"/>
<path d="M57.4978 31.3814C58.1265 32.3862 60.678 39.765 60.678 41.0378C60.678 42.3107 59.3936 50.3335 59.0889 51.7858C58.7842 53.238 54.4719 52.2313 54.9 50.0269C55.3282 47.8225 56.1844 43.6665 56.3214 41.7861C56.4583 39.9057 53.8489 33.7497 53.5172 33.1017C52.6995 31.4971 55.926 28.8627 57.4997 31.3814H57.4978Z" fill="#373638"/>
<g opacity="0.2">
<path d="M42.5844 80.1664C37.9308 77.4799 37.9308 73.0808 42.5844 70.3943C47.2381 67.7078 54.856 67.7078 59.5096 70.3943C64.1633 73.0808 64.1633 77.4799 59.5096 80.1664C54.856 82.8529 47.2381 82.8529 42.5844 80.1664Z" fill="black"/>
</g>
<path d="M54.5817 43.9808C52.5123 43.9808 51.7448 45.9518 51.7448 49.6816C51.7448 55.6371 53.2066 56.8116 53.5923 71.8969C53.6598 74.5121 58.4466 74.9074 58.7088 73.0116C59.0946 70.221 57.8371 54.9119 58.2151 48.268C58.3386 46.0984 56.7571 43.9808 54.5836 43.9808H54.5817Z" fill="#3A393B"/>
<path d="M49.8374 47.2515C47.768 47.2515 46.6919 47.3479 46.6919 51.0797C46.6919 57.0352 47.3765 59.5096 47.3341 75.1696C47.3264 77.7847 52.1883 78.1801 52.4506 76.2843C52.8363 73.4937 52.6551 58.0824 53.0311 51.4404C53.1546 49.2707 52.0109 47.2535 49.8393 47.2535L49.8374 47.2515Z" fill="#414042"/>
<path d="M58.213 48.2679V50.4858C58.213 51.857 57.4801 53.126 56.2921 53.8126L52.4504 56.0304C51.2624 56.717 49.7986 56.717 48.6106 56.0304C47.4226 55.3439 46.6898 54.0768 46.6898 52.7036V50.4858L54.3713 46.05L58.2111 48.2679H58.213Z" fill="#414042"/>
<path opacity="0.2" d="M46.6919 50.4858V51.6487C47.0448 52.9177 47.9165 53.3034 47.9165 53.3034C51.0138 55.5386 51.5558 54.9215 56.3676 52.1444C57.5054 51.4867 57.9895 51.1531 58.1978 50.8233C58.2094 50.7095 58.2132 50.5996 58.2132 50.4858V48.2698L54.3715 46.05L46.6919 50.4858Z" fill="black"/>
<path d="M53.3819 30.5982C52.651 30.9183 51.8641 31.5393 47.6926 33.9192C46.2115 34.7639 46.4988 36.2817 46.385 37.9846C46.3388 38.6654 46.5393 46.7211 46.5393 49.7875C46.5393 51.9957 47.9163 52.6032 47.9163 52.6032C51.0117 54.8365 51.5536 54.2213 56.3674 51.4442C58.1783 50.3989 58.3326 50.1694 58.3538 49.4732C58.5466 43.0799 58.1687 32.4188 57.4956 31.385C56.2497 29.47 53.6809 30.469 53.38 30.6001L53.3819 30.5982Z" fill="#414042"/>
<path d="M50.4932 30.0544C50.4334 29.6282 53.7486 30.2434 53.7486 30.2434L54.1247 32.3051C54.171 32.5211 54.2115 32.7043 54.2115 32.7043C54.2558 32.9897 54.0996 33.3523 53.7351 33.603C52.9965 34.1122 51.8085 34.0697 51.0467 33.603C50.3003 33.1459 49.9744 32.9068 49.9532 32.7043C49.9532 32.7043 50.551 30.4806 50.4913 30.0544H50.4932Z" fill="#F2C7AA"/>
<path d="M53.98 31.5145C53.98 31.5145 54.1382 32.4228 53.3995 32.66C51.847 33.1595 51.5751 32.7584 50.1229 32.0525C50.0689 32.0255 49.4575 32.6099 49.4479 32.9108C49.4479 32.9108 51.5153 34.8297 53.4574 33.8673C55.4303 32.9879 53.98 31.5164 53.98 31.5164V31.5145Z" fill="#58595B"/>
<path d="M56.5874 26.3902C56.3869 26.9784 56.194 27.5454 56.0301 28.0218C55.7389 28.8704 55.222 29.6225 54.5335 30.1953C53.3397 31.1904 51.7544 31.5858 50.2328 31.2676C49.3167 31.0747 48.6456 30.2879 48.5993 29.3525L48.4103 25.4549C48.3351 23.9024 49.1586 22.4424 50.5278 21.7038L50.8461 21.5321C51.7891 21.023 52.8981 20.9092 53.926 21.2178C56.1188 21.8754 57.3261 24.2225 56.5894 26.3883L56.5874 26.3902Z" fill="#FFD2B3"/>
<path d="M48.4102 21.2294C48.5008 21.7096 48.6937 21.8292 48.9984 21.7694C48.8866 21.3316 48.9637 20.8398 48.9637 20.8398C49.4169 21.2737 51.3146 20.8147 51.3146 20.8147C52.4756 20.4792 54.0089 20.4136 55.9702 21.4762C57.9239 22.535 57.8892 24.0027 57.6442 25.5822C57.3299 27.6072 56.3463 28.7643 55.7619 29.8482C54.6125 31.9773 52.1536 31.2985 52.1536 31.2985L51.521 30.6698C51.3763 30.5251 51.4554 30.2841 51.6579 30.2455C52.0976 30.1625 52.6396 29.8868 52.5663 29.0343C52.4853 28.0778 51.8083 27.9871 51.3783 28.0276C51.1835 28.0469 51.0157 27.8926 51.008 27.6959L50.9617 26.5272C50.9617 26.5272 48.4063 25.1907 48.1865 24.6487C47.5674 23.1213 48.4121 21.2313 48.4121 21.2313L48.4102 21.2294Z" fill="#FF4D53"/>
<path opacity="0.2" d="M50.7111 37.6549C50.5992 39.514 50.2945 44.1426 49.7449 45.9169C49.3032 47.3363 47.7179 51.0778 46.744 53.3342C46.7074 53.1259 46.6919 52.9176 46.6919 52.7016V50.9428C46.5994 50.6188 46.5396 50.2369 46.5396 49.7856C46.5396 47.7105 46.447 43.35 46.4026 40.5362C46.6823 38.1447 47.0121 35.5547 47.3361 34.8662C48.0246 33.4197 50.8229 35.7957 50.7092 37.6549H50.7111Z" fill="black"/>
<path d="M41.9709 53.3419L40.3355 55.3341C40.1967 55.5 40.2198 55.7468 40.3895 55.8818C40.5496 56.0091 40.7829 55.9898 40.9179 55.8336L41.9034 54.6437C41.9034 54.6437 42.9584 55.2088 43.5254 54.2927C44.0924 53.3766 43.319 53.0121 43.157 52.9408C42.995 52.8675 42.4743 52.7479 41.9729 53.3419H41.9709Z" fill="#F2C7AA"/>
<path d="M41.9575 53.3226L41.8495 53.4499L40.9392 54.9214L40.6711 57.1914C40.646 57.4035 40.7386 57.6137 40.9141 57.7371L42.6035 58.9367C42.7019 59.0081 42.8215 59.0447 42.943 59.0447C43.2053 59.0447 43.4367 58.8712 43.5061 58.6185L43.9709 56.9696L44.8638 54.7556C45.1878 53.9668 44.8465 53.0604 44.0828 52.6824C43.3152 52.3024 42.3875 52.584 41.9575 53.3246V53.3226Z" fill="#FFD2B3"/>
<path d="M46.7711 34.8664C46.1655 36.1431 45.5561 43.9442 45.2514 44.922C44.9448 45.8998 42.156 51.4502 41.5736 52.9796C40.9931 54.5089 44.8965 56.2774 45.587 54.6999C46.2774 53.1223 48.6245 47.6953 49.176 45.921C49.7276 44.1467 50.7768 37.875 50.8886 36.0139C51.0005 34.1528 47.4577 33.4199 46.7711 34.8664Z" fill="#414042"/>
</g>
</g>
<defs>
<clipPath id="clip0_1483_126001">
<rect y="0.807373" width="68.8074" height="68.8074" rx="13.7615" fill="white"/>
</clipPath>
<clipPath id="clip1_1483_126001">
<rect width="58" height="94.182" fill="white" transform="translate(5 -12)"/>
</clipPath>
</defs>
</svg>
