<svg width="69" height="70" viewBox="0 0 69 70" fill="none" xmlns="http://www.w3.org/2000/svg">
<g clip-path="url(#clip0_1486_125296)">
<rect y="0.807373" width="68.8074" height="68.8074" rx="13.7615" fill="url(#paint0_radial_1486_125296)"/>
<g clip-path="url(#clip1_1486_125296)">
<path fill-rule="evenodd" clip-rule="evenodd" d="M59.6754 56.0478C56.5253 60.533 48.5552 64.2202 35.7687 67.1131C40.964 67.8618 46.8047 68.8636 53.2839 70.1219C53.2839 70.1219 52.8805 75.057 52.0737 84.9272C51.8913 87.1452 51.7685 88.5758 51.4738 89.5424C51.2493 90.2771 50.7582 90.8113 50.1303 91.2085C45.1595 94.358 23.6452 93.5566 17.6712 91.669C15.4401 90.966 14.6894 89.4124 12.967 84.3929L7.77527 69.2432C2.95183 64.7264 -3.4607 58.6735 -0.934979 50.5327C0.776901 45.0212 9.91512 39.7276 14.8543 37.724C30.5313 38.3813 38.3716 38.7117 38.3716 38.7117C41.0938 39.4815 44.5982 40.1458 47.6361 41.3339C49.3094 41.9877 50.8424 42.7997 52.0246 43.8788C54.5608 46.1847 57.0971 49.9352 59.6403 55.1304C59.6649 55.742 59.6754 56.0513 59.6754 56.0513" fill="#404040"/>
<path fill-rule="evenodd" clip-rule="evenodd" d="M55.0905 56.6805C58.3003 57.7139 59.8298 57.503 59.6789 56.0478C59.6789 56.0478 59.6684 55.742 59.6439 55.1269C58.36 52.5152 57.1216 50.3254 55.9254 48.5503C54.5573 46.5643 53.3611 45.0985 52.3368 44.1565C51.2669 43.0598 49.6111 42.0826 47.3731 41.225C46.3557 40.8208 44.6754 40.3181 42.3356 39.717C40.7816 39.3409 39.4626 39.0035 38.3787 38.7047C38.3787 38.7047 38.533 40.3427 38.8487 43.6152C45.9137 45.7523 49.4462 46.8244 49.4462 46.8244C53.2103 53.394 55.0941 56.677 55.0941 56.677" fill="#616161"/>
<path fill-rule="evenodd" clip-rule="evenodd" d="M25.8623 59.4503C43.0197 65.4399 50.3303 65.0251 47.7976 58.2059C47.7976 58.2059 47.7169 56.8105 47.5555 54.0231C49.292 50.9474 49.8673 48.6416 49.2814 47.1125C42.3567 53.8122 32.9905 57.3659 23.3717 56.9335C23.6348 57.7349 23.7646 58.1321 23.7646 58.1321C24.368 59.3167 25.066 59.7526 25.8588 59.4432" fill="#141414"/>
<path fill-rule="evenodd" clip-rule="evenodd" d="M52.4841 75.296C49.9127 65.9812 35.8669 64.5998 10.3395 71.1588C12.2724 73.3944 20.8634 84.319 23.7645 85.8059C24.8098 86.3402 26.0166 86.4913 27.3005 86.3859C34.7794 85.7743 44.5561 83.2083 52.3367 81.7777C52.5191 79.5456 52.6595 77.8127 52.7612 76.5825C52.8629 76.0025 52.7682 75.5772 52.4841 75.2995" fill="#141414"/>
<path d="M48.229 59.3097C48.236 59.5452 48.0501 59.7421 47.8151 59.7526C47.5801 59.7596 47.3836 59.5733 47.3731 59.3378L47.1942 53.7349C47.1942 53.654 47.2117 53.5767 47.2503 53.5099C47.787 52.5187 48.229 51.4818 48.5658 50.4132C48.9061 49.3446 49.1446 48.2409 49.2779 47.1161C49.306 46.8806 49.52 46.7119 49.755 46.74C49.99 46.7681 50.1584 46.9825 50.1303 47.218C49.99 48.3885 49.741 49.545 49.3831 50.6733C49.0394 51.7594 48.5939 52.8175 48.0536 53.8263L48.229 59.3132V59.3097Z" fill="#141414"/>
<path fill-rule="evenodd" clip-rule="evenodd" d="M24.8065 36.0122C24.589 35.9032 24.3855 35.7696 24.2066 35.6185L24.168 35.5904C23.491 35.506 22.8841 35.2002 22.4175 34.7538C22.2807 34.796 22.1439 34.8276 22.0036 34.8487C21.8563 34.8838 21.7089 34.9084 21.5651 34.9225C21.509 35.0244 21.4458 35.1193 21.3792 35.2107L21.3862 35.2002L21.3757 35.2248C20.6425 36.6906 18.1659 37.3022 17.4257 36.6976C16.7066 36.7468 15.5735 37.1229 14.8614 37.7275C18.208 43.587 24.7609 48.1425 30.6998 48.6944C37.0808 49.2884 40.4554 44.754 38.3787 38.7152C38.0525 38.5746 37.4526 38.4832 36.6493 38.4446C36.5055 38.4375 36.3932 38.3918 36.2494 38.311C35.6846 38.9999 34.8252 39.4393 33.864 39.4393C32.2819 39.4393 30.9805 38.2477 30.798 36.7152C29.6825 37.1686 28.4021 36.9261 27.5286 36.1C26.6692 36.4867 25.6484 36.4586 24.81 36.0192" fill="black"/>
<path fill-rule="evenodd" clip-rule="evenodd" d="M35.025 32.353C30.0543 32.3636 25.1642 31.07 20.8459 28.5955C20.8459 28.5955 20.867 30.6799 20.9055 34.8522C20.9055 34.8522 19.7409 35.4497 17.4116 36.6449C19.7374 41.5096 25.4869 45.6574 30.5629 46.1284C35.6354 46.5994 38.298 43.2355 36.6457 38.434C35.7442 38.0403 35.2917 37.84 35.2917 37.84C35.1127 34.1773 35.025 32.346 35.025 32.346" fill="#FFBD95"/>
<path fill-rule="evenodd" clip-rule="evenodd" d="M35.1199 34.2933C26.1325 31.7941 21.6353 30.5428 21.6353 30.5428C21.8528 30.8662 22.0703 31.186 22.2843 31.4989C22.0247 31.4356 21.7581 31.3723 21.4845 31.3126C28.1706 41.2214 31.5137 46.1776 31.5137 46.1776C32.0925 46.1881 32.6678 46.1249 33.2291 45.9913C33.629 45.9105 34.0149 45.7804 34.3797 45.6082C35.0427 45.2953 35.6355 44.8419 36.1161 44.276C36.9019 43.2531 37.2597 41.9666 37.1159 40.6836C37.0563 39.9173 36.8984 39.1651 36.6423 38.441C35.7408 38.0474 35.2883 37.847 35.2883 37.847C35.1725 35.4779 35.1164 34.2933 35.1164 34.2933" fill="#E08853"/>
<path fill-rule="evenodd" clip-rule="evenodd" d="M39.4765 20.2122C40.2413 17.5091 40.0554 15.3509 38.9188 13.7446C38.5329 13.0029 36.5474 12.6197 32.9693 12.5951C29.763 10.6689 25.7148 10.8658 22.7155 13.1013C19.7162 15.3333 18.3552 19.1612 19.2742 22.7922C19.2953 25.6218 19.7408 27.9769 20.6108 29.8574C22.1262 33.1404 27.2057 36.9331 31.517 36.8558C33.8042 36.8136 35.1653 35.7205 36.13 34.1914C37.249 32.4163 38.8977 28.5568 39.1854 25.6042C39.3994 23.4073 38.5399 22.6481 39.48 20.2122" fill="#FFBD95"/>
<path fill-rule="evenodd" clip-rule="evenodd" d="M39.4767 20.2122C40.2415 17.5091 40.0556 15.3509 38.919 13.7445C38.5331 13.0029 36.5476 12.6197 32.9695 12.5951C32.2819 12.1839 31.5593 11.8675 30.8156 11.6496C34.3411 14.9607 36.5476 19.6674 36.5476 24.8907C36.5476 29.4602 34.8603 33.6325 32.0785 36.8242C34.0324 36.6273 35.2462 35.5904 36.1267 34.1914C37.2457 32.4163 38.8944 28.5568 39.1856 25.6042C39.3996 23.4073 38.5401 22.6481 39.4803 20.2122" fill="#FFD3B8"/>
<path fill-rule="evenodd" clip-rule="evenodd" d="M19.7691 16.8061C17.3135 19.8677 17.6117 22.8414 20.6671 25.7167C20.6987 28.7537 22.4807 31.6536 26.0097 34.4234C23.7085 31.534 27.5602 30.4339 27.7882 27.4777C27.9742 25.0699 25.9886 24.1455 26.1465 22.2474C26.3815 19.3721 32.5099 18.539 29.9281 12.9115C28.0934 11.8921 25.901 11.7375 23.9435 12.4897C21.9826 13.2419 20.4566 14.8201 19.7691 16.8061Z" fill="#ECA377"/>
<path fill-rule="evenodd" clip-rule="evenodd" d="M22.9717 16.423C24.2556 15.4704 25.4869 14.778 25.3501 12.1628C32.5589 15.365 36.8948 15.952 38.3576 13.9168C39.6976 15.249 40.0835 17.1998 39.5117 19.7763C39.3503 20.4583 39.645 20.3809 39.8379 19.7623C41.3218 14.5741 40.087 9.08366 34.6707 6.7286C30.2612 4.81291 25.1186 6.42982 22.5928 10.5283C20.1513 10.3948 17.8501 11.6777 16.6749 13.8289C15.5033 15.9801 15.6681 18.6129 17.0994 20.5989C17.4958 20.5707 17.8606 20.4864 18.1974 20.3423C18.3798 20.4055 18.5517 20.4442 18.7025 20.5004C18.2816 22.0471 18.5236 23.7132 19.3936 25.0805C20.4354 26.2686 22.221 25.664 22.5086 24.3951C22.7682 23.2492 21.2458 21.678 21.3615 19.5408C21.4247 18.3703 21.9158 17.2807 22.9682 16.423" fill="#1A1A1A"/>
<path fill-rule="evenodd" clip-rule="evenodd" d="M22.9717 16.423C23.0629 16.3562 23.1506 16.2894 23.2418 16.2262C21.7544 15.7727 20.674 14.3913 20.674 12.7533C20.674 11.9343 20.9441 11.1786 21.4036 10.5705C19.4251 10.8341 17.6536 12.0257 16.6749 13.8219C15.5033 15.9731 15.6681 18.6058 17.0994 20.5918C17.4958 20.5637 17.8606 20.4793 18.1974 20.3352C18.3798 20.3985 18.5517 20.4372 18.7025 20.4934C18.2816 22.04 18.5236 23.7061 19.3936 25.0735C20.4354 26.2615 22.221 25.657 22.5086 24.388C22.7682 23.2421 21.2458 21.6709 21.3615 19.5338C21.4247 18.3633 21.9158 17.2736 22.9682 16.416" fill="black"/>
<path d="M34.8214 18.8764C34.6741 18.9854 34.4706 18.9537 34.3619 18.8096C34.2531 18.662 34.2847 18.4581 34.4285 18.3491C34.7442 18.1171 35.0985 17.9519 35.4704 17.857C35.8422 17.7656 36.2316 17.7446 36.6175 17.8043C37.0033 17.8641 37.3717 18.0011 37.6979 18.2015C38.0242 18.4019 38.3153 18.6655 38.5433 18.9818C38.6486 19.1295 38.617 19.3369 38.4697 19.4423C38.3223 19.5478 38.1154 19.5161 38.0101 19.3685C37.8312 19.1224 37.6067 18.9186 37.3541 18.7639C37.1016 18.6092 36.8174 18.5038 36.5192 18.4581C36.2176 18.4124 35.9159 18.4265 35.6282 18.4968C35.3406 18.5671 35.0634 18.6971 34.8214 18.8764Z" fill="#1A1A1A"/>
<path d="M26.9812 19.0733C26.8619 19.2069 26.655 19.2174 26.5217 19.0979C26.3884 18.9784 26.3778 18.771 26.4971 18.6375C26.8023 18.2965 27.1706 18.0259 27.574 17.8325C27.9775 17.6392 28.4195 17.5267 28.879 17.5056C29.335 17.4845 29.7841 17.5513 30.205 17.706C30.626 17.8571 31.0189 18.0926 31.3556 18.402C31.4889 18.525 31.4959 18.7289 31.3767 18.8624C31.2574 18.996 31.0504 19.003 30.9171 18.8835C30.6435 18.6339 30.3278 18.4441 29.984 18.3211C29.6437 18.1981 29.2754 18.1418 28.9071 18.1594C28.5387 18.177 28.1809 18.2684 27.8512 18.4266C27.5214 18.5847 27.2268 18.8027 26.9777 19.0804" fill="#1A1A1A"/>
<path fill-rule="evenodd" clip-rule="evenodd" d="M17.9623 19.6745C19.3935 19.5163 20.8178 20.9117 21.1405 22.7888C21.4632 24.6658 20.5652 26.3143 19.1304 26.4725C17.6992 26.6307 16.275 25.2352 15.9522 23.3582C15.6295 21.4812 16.5275 19.8326 17.9623 19.6745Z" fill="#FFBD95"/>
<path fill-rule="evenodd" clip-rule="evenodd" d="M17.8607 21.235C18.7587 21.1366 19.6497 22.0118 19.8497 23.1859C20.0531 24.3634 19.4883 25.3933 18.5903 25.4917C17.6923 25.5901 16.8013 24.7149 16.6013 23.5409C16.3978 22.3633 16.9626 21.3334 17.8607 21.235Z" fill="#ECA377"/>
<path fill-rule="evenodd" clip-rule="evenodd" d="M18.5201 21.6462C19.0849 21.583 19.6461 22.1348 19.7759 22.8765C19.9022 23.6182 19.5479 24.2684 18.9831 24.3317C18.4184 24.395 17.8571 23.8431 17.7273 23.1015C17.601 22.3598 17.9553 21.7095 18.5201 21.6462Z" fill="#B60000"/>
<path fill-rule="evenodd" clip-rule="evenodd" d="M35.7301 15.0908C36.9649 15.024 37.8383 14.6338 38.354 13.9168C39.6941 15.249 40.0799 17.1998 39.5081 19.7763C39.3468 20.4582 39.6414 20.3809 39.8344 19.7623C41.3182 14.5741 40.0834 9.08363 34.6672 6.72857C32.9483 5.97987 31.1171 5.77248 29.3737 6.03611C29.9209 6.08532 30.4681 6.1978 31.0119 6.38058C34.6531 7.59678 36.6877 11.4282 35.7301 15.0943" fill="#4D4D4D"/>
<path fill-rule="evenodd" clip-rule="evenodd" d="M22.179 78.8884C27.2515 80.3787 39.9258 75.2011 45.3105 73.5069C45.3456 73.4577 47.8257 74.6035 50.2847 75.6405C54.796 77.5421 58.1461 78.21 62.5766 74.9656C69.9012 69.6017 63.8079 61.3906 59.6755 56.0478C56.4868 54.0969 52.3544 54.7331 49.9024 57.5592C48.8781 56.8773 47.7766 57.4327 46.5979 59.2289L45.3806 61.1586C40.701 59.9072 34.9304 57.7842 30.1912 57.2534C28.7038 57.0882 27.2445 57.3518 24.3189 58.8246C23.7471 58.104 23.4594 57.742 23.4594 57.742C12.1638 58.0232 7.4281 64.9865 10.3432 71.1588C12.7321 72.846 19.1868 78.0096 22.1825 78.8884" fill="#ECA377"/>
<path fill-rule="evenodd" clip-rule="evenodd" d="M9.51529 67.0182C9.45916 67.8723 9.53984 68.73 9.75734 69.5595C12.2936 71.1799 14.7632 72.9234 17.1731 74.4454C21.4072 77.1238 22.3369 78.0975 26.6622 77.7179C29.2054 77.4929 33.4044 76.4103 37.5403 75.057C32.4573 76.8813 26.8481 74.3013 24.9187 69.2467C24.9187 69.2467 20.8916 66.5085 12.8373 61.0286C12.1989 61.5382 11.6236 62.1288 11.1289 62.779C10.1888 64.0023 9.62403 65.4751 9.51529 67.0146" fill="#E08853"/>
<path fill-rule="evenodd" clip-rule="evenodd" d="M12.1146 60.1709C9.58184 62.0655 8.26636 65.1833 8.68029 68.3257C4.37604 64.6736 -0.629811 59.4784 -0.387762 53.6646C-0.370223 53.2217 -0.324619 52.7753 -0.25446 52.3289C0.131415 53.1514 0.840021 53.8192 1.76612 54.1285C2.96935 54.5293 4.23572 54.227 5.12323 53.4466L13.1775 59.5944C12.8863 59.6963 12.532 59.8897 12.1181 60.1744" fill="#141414"/>
<path fill-rule="evenodd" clip-rule="evenodd" d="M29.3071 63.9811C35.6003 65.4821 40.5922 68.403 44.286 72.7406C44.286 72.7406 41.1569 73.788 34.8987 75.8795C36.2002 73.6088 36.316 70.8389 35.2004 68.4698C34.0849 66.0972 31.8854 64.424 29.3071 63.9811Z" fill="#E08853"/>
<path fill-rule="evenodd" clip-rule="evenodd" d="M59.6755 56.0477C58.4372 55.2885 57.0095 54.8983 55.5572 54.9229C58.5038 59.4151 59.9772 61.6577 59.9772 61.6577C60.6753 61.2218 61.5242 61.0847 62.3205 61.2886C63.1203 61.489 63.8044 62.0092 64.2113 62.7263C63.6956 61.7245 62.8923 60.4485 61.8013 58.8949C61.0331 57.8333 60.3245 56.8843 59.6685 56.0477" fill="#FFBD95"/>
<path fill-rule="evenodd" clip-rule="evenodd" d="M24.6976 58.6349C24.6801 58.677 24.6801 58.7262 24.7082 58.7649C24.7327 58.8036 24.7748 58.8282 24.8239 58.8282C24.8239 58.8282 34.1761 61.3098 52.877 66.273C53.8943 68.9303 56.4551 70.6738 59.2966 70.6457C62.138 70.6175 64.6602 68.8214 65.6249 66.1429C64.7655 66.5296 63.7657 66.4593 62.9694 65.9531C62.1731 65.447 61.682 64.5717 61.6644 63.6262C60.3279 61.4012 56.82 60.9477 51.1406 62.2659C47.0258 61.4504 44.9701 61.0391 44.9701 61.0391C42.518 60.3291 40.0134 59.5909 37.4526 58.8247C35.8003 58.3466 34.1726 57.9424 32.573 57.619C31.5767 57.4046 30.5033 57.264 29.3492 57.2042C29.0194 57.1937 28.4932 57.2675 27.7636 57.4257C27.1181 57.5979 26.4902 57.8194 25.8868 58.083C25.5431 58.2306 25.1467 58.4099 24.7047 58.6278" fill="#FFBD95"/>
<path fill-rule="evenodd" clip-rule="evenodd" d="M27.4443 62.9338C25.1816 59.9706 24.0486 58.4908 24.0486 58.4908C24.0486 58.4908 23.9363 58.3537 23.7153 58.083C23.7153 58.083 23.4522 57.9776 22.9295 57.7632C21.2562 57.8265 19.597 58.076 17.9798 58.5084C23.0944 62.7088 25.6552 64.8108 25.6552 64.8108C26.1919 66.491 27.5846 67.7599 29.307 68.1325C31.0294 68.5086 32.8184 67.9321 34.0041 66.6281C32.4782 64.4804 30.0717 63.1236 27.4478 62.9338" fill="#FFBD95"/>
<path fill-rule="evenodd" clip-rule="evenodd" d="M16.9274 48.835C20.9265 54.786 22.926 57.7632 22.926 57.7632C21.2142 57.83 19.5619 58.0795 17.9763 58.5084C17.9763 58.5084 16.4258 56.8915 13.3213 53.6577C11.1323 54.6735 8.54695 54.2833 6.75087 52.6664C4.9548 51.0495 4.29531 48.5152 5.07057 46.2269C9.16435 44.3815 13.9808 45.4431 16.9239 48.8386" fill="#616161"/>
<path d="M23.7926 57.4819C23.9364 57.6682 23.9013 57.9388 23.7154 58.083C23.5295 58.2271 23.2594 58.1919 23.1155 58.0056L17.2888 50.4272C17.2713 50.4062 17.2573 50.3816 17.2467 50.3569C16.6995 49.3517 15.9593 48.4764 15.0823 47.7699C14.2018 47.0634 13.1845 46.5291 12.083 46.2092C10.9815 45.8894 9.83444 45.8015 8.71189 45.9315C7.59286 46.0616 6.49837 46.4131 5.4951 46.9755C5.28813 47.0915 5.02854 47.0177 4.91278 46.8103C4.79702 46.6029 4.87068 46.3428 5.07765 46.2268C6.17915 45.6082 7.38238 45.2215 8.61718 45.0809C9.84496 44.9403 11.1043 45.0387 12.3216 45.3902C13.5388 45.7417 14.6579 46.3287 15.6226 47.1056C16.5802 47.8753 17.3871 48.8314 17.9904 49.9316L23.7996 57.4854L23.7926 57.4819Z" fill="#141414"/>
<path fill-rule="evenodd" clip-rule="evenodd" d="M44.3212 71.9567C38.9891 67.57 33.1835 64.4697 26.8972 62.6524C26.8972 62.6524 26.6096 62.1322 26.0308 61.0883C26.0308 61.0883 34.8112 63.7843 52.3685 69.1798C53.3367 71.317 55.2555 72.8741 57.5427 73.3838C59.8299 73.89 62.2258 73.2889 64.0043 71.7599C61.9978 74.3293 59.5212 75.6615 56.5745 75.7635C52.6877 75.897 47.8537 73.4084 44.3212 71.9532" fill="#E08853"/>
<path d="M49.6849 57.2956C49.8322 57.1761 50.0462 57.1972 50.1655 57.3413C50.2847 57.4889 50.2637 57.7033 50.1199 57.8228L47.538 59.9494C47.3907 60.0689 47.1767 60.0478 47.0574 59.9037C46.9382 59.7561 46.9592 59.5417 47.103 59.4222L49.6849 57.2956ZM52.8666 61.3062C52.8736 61.2043 52.9297 61.1094 53.0245 61.0566L54.8802 60.0619C54.8802 60.0619 54.9047 60.0478 54.9188 60.0443C55.7501 59.6998 56.4096 59.5522 56.9007 59.5979C56.9674 59.6049 57.034 59.6155 57.0972 59.626C57.0972 59.6155 57.0972 59.6049 57.0972 59.5909C57.0972 59.5311 57.0972 59.4749 57.0902 59.4151C57.0621 59.1902 56.9569 59.0144 56.7639 58.8984C56.5324 58.7543 56.1816 58.6735 55.7186 58.6559C55.4274 58.6453 55.0941 58.6629 54.7153 58.7051L51.8738 60.3536C51.709 60.4486 51.502 60.3923 51.4073 60.2271C51.3126 60.0619 51.3687 59.8545 51.5336 59.7596L54.4382 58.0759C54.4803 58.0513 54.5259 58.0372 54.568 58.0337C55.0029 57.981 55.3958 57.9634 55.7431 57.974C55.9466 57.981 56.1325 57.9986 56.3079 58.0267C56.2448 57.8791 56.1115 57.7525 55.915 57.6471C55.6203 57.4854 55.1889 57.3729 54.6241 57.3026L53.1893 57.4573L50.5093 59.2886C50.3514 59.394 50.1409 59.3554 50.0322 59.1972C49.9269 59.039 49.9655 58.8281 50.1234 58.7192L52.8736 56.8386C52.9227 56.8035 52.9789 56.7859 53.035 56.7789L53.691 56.7086C53.4419 56.5047 53.1999 56.3711 52.9648 56.3079C52.6421 56.2235 52.3229 56.2797 52.0071 56.4766C51.8458 56.575 51.6353 56.5258 51.5371 56.3676C51.4389 56.2059 51.488 55.995 51.6458 55.8966C52.1299 55.5943 52.6245 55.5135 53.1402 55.647C53.6208 55.7736 54.1049 56.0934 54.5855 56.6101H54.5925C54.6171 56.6101 54.6416 56.6101 54.6662 56.6101C55.3362 56.6875 55.8624 56.8316 56.2448 57.039C56.6833 57.278 56.9393 57.5979 57.02 58.0021C57.034 58.0829 57.02 58.1603 56.9884 58.2271C57.0411 58.2517 57.0902 58.2798 57.1358 58.3079C57.5111 58.5434 57.7286 58.8844 57.7812 59.3273C57.7918 59.4116 57.7953 59.5065 57.7918 59.6049C57.7918 59.7139 57.7356 59.8088 57.655 59.8686C57.8479 60.0303 57.9742 60.2623 58.0408 60.5645C58.0794 60.7508 57.9636 60.9231 57.7777 60.9477C57.5918 60.9723 57.4094 60.8387 57.3673 60.6489C57.3182 60.4204 57.1673 60.2939 56.9113 60.2693C56.5324 60.2341 55.9781 60.3642 55.245 60.6665L54.3575 61.1445C55.5958 61.0496 56.7043 61.0531 57.6795 61.1516C59.6159 61.3484 61.0471 61.9284 61.9803 62.8915C62.1451 63.0602 62.1416 63.3309 61.9732 63.4961C61.8049 63.6613 61.5347 63.6578 61.3699 63.489C60.5806 62.6736 59.3247 62.1779 57.5953 62.0057C55.8098 61.8229 53.5436 61.9846 50.7934 62.4908C50.7373 62.5048 50.6776 62.5083 50.618 62.4978L45.314 61.5698C45.0825 61.5312 44.9246 61.3097 44.9632 61.0742C45.0018 60.8422 45.2228 60.6841 45.4578 60.7227L50.6917 61.6366C51.4564 61.496 52.1825 61.3835 52.8771 61.2957L52.8666 61.3062ZM45.6122 73.2046C45.777 73.3733 45.777 73.6439 45.6122 73.8091C45.4438 73.9743 45.1737 73.9743 45.0088 73.8091C42.4796 71.2537 39.6346 69.0603 36.5511 67.2747C33.4711 65.4891 30.1526 64.1112 26.6832 63.1867C26.5675 63.1551 26.4763 63.0813 26.4237 62.9864L23.9506 59.0496C23.8243 58.8492 23.8839 58.5856 24.0839 58.459C24.2838 58.3325 24.5469 58.3923 24.6732 58.5926L27.0656 62.3994C30.549 63.3414 33.8816 64.7334 36.9791 66.5295C40.1222 68.3538 43.0303 70.5929 45.6122 73.201V73.2046Z" fill="#BF5E23"/>
<path fill-rule="evenodd" clip-rule="evenodd" d="M9.89393 51.1092C10.1816 51.1092 10.4131 51.3412 10.4131 51.6294C10.4131 51.9176 10.1816 52.1496 9.89393 52.1496C9.60628 52.1496 9.37476 51.9176 9.37476 51.6294C9.37476 51.3412 9.60628 51.1092 9.89393 51.1092Z" fill="white"/>
<path fill-rule="evenodd" clip-rule="evenodd" d="M14.1315 43.7663C14.342 43.7663 14.5138 43.9385 14.5138 44.1494C14.5138 44.3603 14.342 44.5326 14.1315 44.5326C13.921 44.5326 13.7456 44.3603 13.7456 44.1494C13.7456 43.9385 13.9175 43.7663 14.1315 43.7663Z" fill="white"/>
<path d="M29.714 20.4652C30.17 20.887 30.5699 21.945 30.4752 22.5391L30.3068 22.5848C30.2822 21.9134 30.2016 21.1295 29.7104 20.4652H29.714Z" fill="#DA634D"/>
<path style="mix-blend-mode:multiply" d="M30.3069 22.1489C29.7211 19.7622 26.8235 19.5654 25.936 21.5655L30.3069 22.1489Z" fill="url(#paint1_linear_1486_125296)"/>
<path d="M25.8729 21.7377C25.936 21.924 26.0377 22.0962 26.164 22.2509C26.9252 23.1718 28.7038 23.4847 30.1245 22.7465C30.2192 22.6973 30.3139 22.6411 30.4051 22.5813C30.4262 22.5673 30.4507 22.5532 30.4718 22.5356C30.4367 22.4267 30.3911 22.3247 30.342 22.2298C29.5597 20.7184 27.2199 20.5285 25.8694 21.7342L25.8729 21.7377Z" fill="#F0EDFE"/>
<mask id="mask0_1486_125296" style="mask-type:luminance" maskUnits="userSpaceOnUse" x="25" y="20" width="6" height="4">
<path d="M25.8728 21.7377C26.3148 23.0348 28.4652 23.6077 30.128 22.7465C30.2473 22.6833 30.363 22.6165 30.4788 22.5392C30.4437 22.4302 30.3981 22.3283 30.349 22.2334C29.5667 20.7219 27.2269 20.5321 25.8763 21.7377H25.8728Z" fill="white"/>
</mask>
<g mask="url(#mask0_1486_125296)">
<path d="M28.237 22.9749C28.8589 22.9749 29.3631 22.4697 29.3631 21.8466C29.3631 21.2234 28.8589 20.7183 28.237 20.7183C27.6151 20.7183 27.111 21.2234 27.111 21.8466C27.111 22.4697 27.6151 22.9749 28.237 22.9749Z" fill="#573127"/>
<path d="M27.7594 21.8467C27.7594 22.1103 27.9734 22.3247 28.2365 22.3247C28.4996 22.3247 28.7136 22.1103 28.7136 21.8467C28.7136 21.5831 28.4996 21.3687 28.2365 21.3687C27.9734 21.3687 27.7594 21.5831 27.7594 21.8467Z" fill="#23031B"/>
</g>
<path d="M30.1242 22.7501C30.2435 22.6868 30.3593 22.62 30.475 22.5427C30.44 22.4337 30.3944 22.3318 30.3452 22.2369C30.1313 22.381 30.0401 22.5462 30.1278 22.7536L30.1242 22.7501Z" fill="#DA634D"/>
<path d="M28.5703 22.1313C28.6265 21.8009 28.879 21.8255 28.8264 22.0645C28.7738 22.3071 28.5247 22.3914 28.5703 22.1313Z" fill="white"/>
<g style="mix-blend-mode:multiply" opacity="0.15">
<path d="M25.8728 21.7377C25.936 21.924 26.0377 22.0963 26.164 22.2509C27.29 20.859 29.5632 21.3019 30.4086 22.5849C30.4297 22.5708 30.4542 22.5567 30.4753 22.5392C30.4402 22.4302 30.3946 22.3283 30.3455 22.2334C29.5632 20.7219 27.2234 20.5321 25.8728 21.7377Z" fill="#23031B"/>
</g>
<path d="M30.4753 22.5391C29.8334 20.6304 27.3322 20.0153 25.6765 21.6744L25.915 21.8466C27.9707 19.9766 30.1877 21.5127 30.4087 22.5848L30.4753 22.5391Z" fill="#23031B"/>
<path d="M30.4752 22.5391C30.1209 22.7816 29.7245 22.9679 29.3071 23.0839C28.8896 23.1999 28.4476 23.2385 28.0162 23.1964C27.5847 23.1472 27.1567 23.0206 26.7849 22.7921L26.6481 22.7043L26.5183 22.6023C26.4306 22.5391 26.3569 22.4582 26.2797 22.3809L26.2236 22.3211L26.0798 22.1243C26.0166 22.0364 25.971 21.938 25.9219 21.8431C26.1429 22.2157 26.4621 22.5109 26.8305 22.7183C27.1988 22.9257 27.6127 23.0487 28.0337 23.0874C28.4546 23.1366 28.8826 23.0979 29.293 22.9995C29.707 22.9046 30.1034 22.7394 30.4822 22.5355L30.4752 22.5391Z" fill="#DA634D"/>
<path d="M31.6786 18.6761L31.1734 20.5637C31.1734 20.5637 30.977 20.4653 30.6121 20.3247C29.8193 20.0189 28.2337 19.5057 26.1956 19.3826C26.1956 19.3826 26.0132 19.4705 25.7536 19.6287C25.4414 19.8185 25.0134 20.1103 24.6451 20.4793C24.9959 19.0065 26.8376 17.4037 26.8376 17.4037C26.8376 17.4037 27.5707 17.9239 29.23 18.3141C29.7001 18.423 30.2473 18.525 30.8752 18.5988C30.8928 18.5988 30.9103 18.6058 30.9279 18.6129C31.0226 18.6445 31.0927 18.7359 31.0927 18.8413V19.6498L31.4891 18.6585C31.5944 18.6691 31.5733 18.6656 31.6821 18.6761H31.6786Z" fill="#23031B"/>
<path d="M30.6122 20.3211C29.8194 20.0153 28.2338 19.5021 26.1957 19.3791C26.1957 19.3791 26.0133 19.4669 25.7537 19.6251C26.3255 18.532 27.1603 18.1031 27.2024 18.082C27.1814 18.1102 26.8201 18.5636 26.7183 18.9784C27.1112 18.6866 28.0233 18.3984 29.23 18.3105C29.7001 18.4195 30.2473 18.5214 30.8753 18.5952C30.8928 18.5952 30.9104 18.6023 30.9279 18.6093C30.756 18.8799 30.5666 19.3966 30.6157 20.3211H30.6122Z" fill="#401437"/>
<path d="M34.7865 20.3528C34.3305 20.7746 33.9306 21.8326 34.0253 22.4266L34.1937 22.4723C34.2182 21.801 34.2989 21.0171 34.79 20.3528H34.7865Z" fill="#DA634D"/>
<path style="mix-blend-mode:multiply" d="M34.1935 22.0365C34.7794 19.6498 37.6769 19.4529 38.5645 21.453L34.1935 22.0365Z" fill="url(#paint2_linear_1486_125296)"/>
<path d="M38.6277 21.6252C38.5645 21.8115 38.4628 21.9837 38.3365 22.1384C37.5753 23.0593 35.7968 23.3721 34.376 22.634C34.2813 22.5848 34.1866 22.5285 34.0954 22.4688C34.0744 22.4547 34.0498 22.4406 34.0287 22.4231C34.0638 22.3141 34.1094 22.2122 34.1585 22.1173C34.9408 20.6058 37.2806 20.416 38.6312 21.6216L38.6277 21.6252Z" fill="#F0EDFE"/>
<mask id="mask1_1486_125296" style="mask-type:luminance" maskUnits="userSpaceOnUse" x="34" y="20" width="5" height="4">
<path d="M38.6279 21.6251C38.1859 22.9222 36.0355 23.4951 34.3727 22.6339C34.2535 22.5707 34.1377 22.5039 34.0219 22.4266C34.057 22.3176 34.1026 22.2157 34.1517 22.1207C34.934 20.6093 37.2738 20.4195 38.6244 21.6251H38.6279Z" fill="white"/>
</mask>
<g mask="url(#mask1_1486_125296)">
<path d="M36.264 22.8658C36.8859 22.8658 37.39 22.3606 37.39 21.7375C37.39 21.1143 36.8859 20.6091 36.264 20.6091C35.6421 20.6091 35.1379 21.1143 35.1379 21.7375C35.1379 22.3606 35.6421 22.8658 36.264 22.8658Z" fill="#573127"/>
<path d="M36.7407 21.7375C36.7407 22.0011 36.5267 22.2155 36.2636 22.2155C36.0005 22.2155 35.7865 22.0011 35.7865 21.7375C35.7865 21.4739 36.0005 21.2595 36.2636 21.2595C36.5267 21.2595 36.7407 21.4739 36.7407 21.7375Z" fill="#23031B"/>
</g>
<path d="M34.3727 22.6375C34.2535 22.5743 34.1377 22.5075 34.0219 22.4301C34.057 22.3212 34.1026 22.2192 34.1517 22.1243C34.3657 22.2684 34.4569 22.4337 34.3692 22.641L34.3727 22.6375Z" fill="#DA634D"/>
<path d="M35.93 22.0189C35.8739 21.6885 35.6213 21.7131 35.6739 21.9521C35.7266 22.1946 35.9756 22.279 35.93 22.0189Z" fill="white"/>
<g style="mix-blend-mode:multiply" opacity="0.15">
<path d="M38.6278 21.6251C38.5646 21.8114 38.4629 21.9837 38.3366 22.1383C37.2106 20.7464 34.9374 21.1893 34.092 22.4722C34.0709 22.4582 34.0464 22.4441 34.0253 22.4266C34.0604 22.3176 34.106 22.2157 34.1551 22.1207C34.9374 20.6093 37.2772 20.4195 38.6278 21.6251Z" fill="#23031B"/>
</g>
<path d="M34.0253 22.4301C34.6673 20.5215 37.1685 19.9064 38.8242 21.5654L38.5857 21.7377C36.53 19.8677 34.313 21.4038 34.092 22.4758L34.0253 22.4301Z" fill="#23031B"/>
<path d="M34.0251 22.4301C34.3794 22.6726 34.7758 22.8589 35.1933 22.9749C35.6107 23.0909 36.0527 23.1296 36.4842 23.0874C36.9157 23.0382 37.3437 22.9117 37.7155 22.6832L37.8523 22.5953L37.9821 22.4934C38.0698 22.4301 38.1435 22.3493 38.2207 22.2719L38.2768 22.2122L38.4206 22.0153C38.4838 21.9275 38.5294 21.829 38.5785 21.7341C38.3575 22.1067 38.0382 22.402 37.6699 22.6094C37.3016 22.8168 36.8876 22.9398 36.4667 22.9784C36.0457 23.0277 35.6178 22.989 35.2073 22.8906C34.7934 22.7957 34.397 22.6305 34.0181 22.4266L34.0251 22.4301Z" fill="#DA634D"/>
<path d="M32.8221 18.5636L33.3272 20.4512C33.3272 20.4512 33.5237 20.3528 33.8885 20.2122C34.6813 19.9064 36.2669 19.3932 38.305 19.2702C38.305 19.2702 38.4874 19.358 38.747 19.5162C39.0592 19.706 39.4872 19.9978 39.8555 20.3668C39.5047 18.894 37.6631 17.2912 37.6631 17.2912C37.6631 17.2912 36.9299 17.8114 35.2706 18.2016C34.8006 18.3106 34.2533 18.4125 33.6254 18.4863C33.6079 18.4863 33.5903 18.4933 33.5728 18.5004C33.4781 18.532 33.4079 18.6234 33.4079 18.7288V19.5373L33.0115 18.5461C32.9063 18.5566 32.9273 18.5531 32.8186 18.5636H32.8221Z" fill="#23031B"/>
<path d="M33.8886 20.2122C34.6814 19.9063 36.267 19.3932 38.3051 19.2701C38.3051 19.2701 38.4875 19.358 38.7471 19.5162C38.1753 18.423 37.3404 17.9942 37.2983 17.9731C37.3194 18.0012 37.6807 18.4546 37.7824 18.8694C37.3895 18.5777 36.4775 18.2894 35.2707 18.2016C34.8007 18.3105 34.2534 18.4125 33.6255 18.4863C33.608 18.4863 33.5904 18.4933 33.5729 18.5003C33.7448 18.771 33.9342 19.2877 33.8851 20.2122H33.8886Z" fill="#401437"/>
<path d="M27.6514 3.73376C22.8315 7.31557 24.5434 19.2842 24.5434 19.2842C19.7761 18.8343 16.0998 17.9907 16.0998 17.9907C15.2438 17.1471 15.1631 4.02551 27.6514 3.73376Z" fill="#2D2D2D"/>
<path d="M24.5396 19.3264C19.8214 18.88 16.1275 18.0399 16.0925 18.0329H16.0819L16.0749 18.0223C15.6119 17.5654 15.4575 14.1242 16.7379 10.8904C18.0008 7.69522 20.9229 3.84979 27.6582 3.69513H27.7915L27.6862 3.77246C25.2131 5.61081 24.501 9.71987 24.3432 12.8447C24.1678 16.2508 24.5887 19.2561 24.5957 19.2842L24.6028 19.337H24.5501L24.5396 19.3264ZM16.8116 10.9185C15.4891 14.2648 15.7382 17.5302 16.124 17.952C16.3591 18.0048 19.9442 18.8027 24.4975 19.2385C24.3467 18.293 23.0382 7.29802 27.5284 3.77949C20.9299 3.97985 18.0604 7.76904 16.8151 10.9185H16.8116Z" fill="#5A5A5A"/>
<g style="mix-blend-mode:multiply" opacity="0.5">
<path d="M24.4275 4.14154C23.8592 4.68637 23.4032 5.35774 23.0594 6.06426C22.3788 7.47378 22.0315 9.11178 22.1789 10.676C22.3192 12.1628 23.0103 13.727 24.2486 14.5601C24.2486 17.2244 24.5432 19.2842 24.5432 19.2842C19.7759 18.8343 16.0996 17.9907 16.0996 17.9907C15.3278 17.228 15.1875 6.40521 24.4275 4.14154Z" fill="#767676"/>
</g>
<path d="M27.6513 3.73379C28.0757 3.72324 28.5107 3.72676 28.9632 3.74785C42.0865 4.3454 40.4167 17.8782 40.4167 17.8782C35.9721 19.7974 29.6333 19.7658 24.5397 19.2842C24.5397 19.2842 22.8313 7.31559 27.6477 3.73379H27.6513Z" fill="#2D2D2D"/>
<path d="M24.5399 19.3264H24.5153L24.5048 19.3018C24.4978 19.2912 24.0733 16.2577 24.2487 12.8482C24.5399 7.14681 26.2483 4.72496 27.6269 3.69858L27.6374 3.69155H27.6515C28.0794 3.681 28.5284 3.68452 28.9669 3.70561C32.7696 3.87785 35.6987 5.15731 37.6772 7.50183C41.1816 11.6601 40.4695 17.8219 40.459 17.8852V17.9098L40.4344 17.9203C37.8456 19.0381 34.3587 19.604 30.0684 19.604C28.339 19.604 26.4798 19.5091 24.5399 19.3264ZM37.614 7.55807C35.6531 5.23113 32.7415 3.96221 28.9634 3.78997C28.5284 3.76888 28.0899 3.76536 27.6655 3.77591C25.2029 5.61778 24.4908 9.71981 24.3329 12.8376C24.1681 16.0539 24.5329 18.9116 24.5785 19.2455C26.5044 19.4248 28.353 19.5197 30.0684 19.5197C34.3341 19.5197 37.8035 18.9573 40.3783 17.8536C40.4239 17.4282 40.9817 11.5582 37.6105 7.55807H37.614Z" fill="#5A5A5A"/>
<g style="mix-blend-mode:multiply" opacity="0.5">
<path d="M25.5361 15.0943C26.6727 15.3158 27.8198 15.0767 28.8967 14.6971C30.135 14.2613 31.3242 13.7516 32.6257 13.5231C33.3202 13.4001 34.0218 13.3192 34.7269 13.3122C35.418 13.3052 36.0915 13.4001 36.7721 13.5196C37.7227 13.6883 38.9786 14.0644 39.6942 13.1962C39.8766 12.9748 39.9783 12.7182 40.0239 12.4475C40.7255 15.3615 40.4133 17.8817 40.4133 17.8817C35.9688 19.8009 29.6299 19.7693 24.5363 19.2877C24.5363 19.2877 24.2417 17.2279 24.2417 14.5636C24.6205 14.8166 25.0485 15.0029 25.5291 15.0978L25.5361 15.0943Z" fill="#767676"/>
</g>
<g style="mix-blend-mode:multiply" opacity="0.5">
<path d="M22.0245 5.00964C21.3895 5.4912 20.7932 6.03251 20.274 6.63358C19.6812 7.32253 19.2286 8.09583 18.8813 8.91835C18.6603 9.33663 18.4639 9.76898 18.2955 10.2119C17.843 11.4035 17.5203 12.6583 17.2993 13.9132C17.0958 15.0872 17.0081 16.2612 16.9379 17.4493C16.9239 17.6848 16.9064 17.9203 16.8993 18.1593C16.3837 18.0539 16.096 17.9906 16.096 17.9906C15.3979 17.3017 15.2155 8.38406 22.021 5.00964H22.0245Z" fill="#767676"/>
</g>
<path d="M45.8504 18.8835C45.3207 18.5882 44.77 18.3527 44.1526 18.2156C43.016 17.959 41.7216 18.1805 40.6411 18.5671C39.6764 18.9116 38.7468 19.4424 37.9084 20.0258C37.9084 20.0258 34.5197 22.8554 30.461 21.8923C26.9671 21.0628 24.5431 19.2842 24.5431 19.2842C24.5431 19.2842 28.6018 14.7287 35.2283 14.4053C35.2283 14.4053 38.0943 14.1347 40.4868 15.3825C42.8827 16.6303 47.45 18.8659 47.2326 19.2174C47.1133 19.4072 46.9449 19.5794 46.7765 19.467C46.4643 19.2561 46.1591 19.0627 45.8469 18.887L45.8504 18.8835Z" fill="#505050"/>
<path d="M30.4505 21.9311C26.9881 21.1085 24.5431 19.337 24.5185 19.3194L24.4799 19.2913L24.5115 19.2561C24.5536 19.2104 28.6544 14.6866 35.2248 14.3632C35.2248 14.3632 35.4949 14.3386 35.9264 14.3386C36.9156 14.3386 38.831 14.4687 40.5113 15.3439C40.9358 15.5654 41.4304 15.8184 41.9566 16.0856C44.9103 17.597 47.1799 18.7816 47.2816 19.1542C47.2922 19.1929 47.2816 19.221 47.2746 19.235C47.1904 19.3756 47.0536 19.5409 46.8958 19.5409C46.8502 19.5409 46.8046 19.5268 46.759 19.4987C46.4047 19.2596 46.11 19.0769 45.8329 18.9222C45.247 18.5953 44.7103 18.3844 44.1455 18.2579C43.8263 18.1876 43.4755 18.1489 43.1107 18.1489C42.1425 18.1489 41.2409 18.3985 40.6586 18.6094C39.7957 18.9187 38.8801 19.4073 37.9365 20.0611C37.9119 20.0822 35.4107 22.1385 32.1834 22.1385C31.5976 22.1385 31.0153 22.0717 30.454 21.9381L30.4505 21.9311ZM44.1631 18.1735C44.7349 18.3 45.2786 18.5145 45.8714 18.8484C46.1521 19.0031 46.4467 19.1893 46.8046 19.4284C46.8326 19.4495 46.8642 19.4565 46.8923 19.4565C46.987 19.4565 47.0957 19.3616 47.201 19.1929C47.201 19.1929 47.201 19.1823 47.201 19.1788C47.0992 18.8097 44.1034 17.2807 41.918 16.1629C41.3953 15.8958 40.9007 15.6427 40.4727 15.4212C38.8064 14.553 36.9121 14.4265 35.9264 14.4265C35.5019 14.4265 35.2353 14.4511 35.2318 14.4511C29.0052 14.7569 25.0026 18.8589 24.6062 19.2807C24.929 19.5092 27.2582 21.0875 30.468 21.8537C31.0223 21.9873 31.6011 22.0541 32.1799 22.0541C35.3792 22.0541 37.8558 20.0189 37.8838 19.9943C38.8345 19.337 39.7571 18.8449 40.6271 18.532C41.2199 18.3211 42.1285 18.0681 43.1072 18.0681C43.479 18.0681 43.8333 18.1067 44.1596 18.177L44.1631 18.1735Z" fill="#5A5A5A"/>
<path d="M45.9136 18.6129C45.9136 18.6129 42.9388 16.191 37.9084 19.6779C37.9084 19.6779 34.5197 22.5075 30.461 21.5444C26.9671 20.7148 24.5431 19.2842 24.5431 19.2842C24.5431 19.2842 28.6018 14.3843 35.2283 14.0609C35.2283 14.0609 38.0943 13.7903 40.4868 15.0381C42.8827 16.2859 47.5027 18.7816 47.2852 19.1331C47.0677 19.4846 47.1554 19.4248 45.9101 18.6164L45.9136 18.6129Z" fill="#2D2D2D"/>
<path d="M30.4505 21.5865C26.9916 20.764 24.5466 19.3369 24.522 19.3228L24.4799 19.2982L24.5115 19.2596C24.5115 19.2596 25.5499 18.0153 27.3775 16.7604C29.0613 15.604 31.794 14.1874 35.2248 14.0187C35.2248 14.0187 35.4949 13.9941 35.9264 13.9941C36.9156 13.9941 38.8275 14.1241 40.5078 14.9994C42.0688 15.8113 47.1764 18.5074 47.3307 19.0698C47.3413 19.1084 47.3307 19.1366 47.3202 19.1506L47.3027 19.1787C47.229 19.2982 47.1834 19.3756 47.0852 19.3756C46.98 19.3756 46.8326 19.2772 46.4748 19.0381C46.3205 18.9362 46.131 18.8061 45.8855 18.648C45.8749 18.6409 44.8682 17.8395 43.0756 17.8395C41.4584 17.8395 39.7255 18.4722 37.9329 19.713C37.9084 19.7341 35.4072 21.7904 32.1799 21.7904C31.5941 21.7904 31.0118 21.7236 30.4505 21.59V21.5865ZM45.9381 18.5777C46.1801 18.7358 46.3731 18.8624 46.5274 18.9678C46.8502 19.1822 47.0115 19.2912 47.0922 19.2912C47.1413 19.2912 47.1694 19.2455 47.236 19.1366L47.2536 19.1084V19.0944C47.1378 18.6726 43.5281 16.6655 40.4727 15.0767C38.8064 14.212 36.9121 14.082 35.9299 14.082C35.5054 14.082 35.2388 14.1066 35.2353 14.1066C29.0122 14.4124 25.0132 18.8202 24.6133 19.2772C24.957 19.4705 27.2793 20.7464 30.475 21.5092C31.0293 21.6428 31.6081 21.7095 32.1869 21.7095C35.3862 21.7095 37.8628 19.6744 37.8909 19.6497C39.701 18.3949 41.4479 17.7587 43.0861 17.7587C44.9103 17.7587 45.9381 18.5777 45.9451 18.5847L45.9381 18.5777Z" fill="#5A5A5A"/>
<g style="mix-blend-mode:multiply" opacity="0.5">
<path d="M32.3939 14.4897C32.0922 14.5776 31.7941 14.6866 31.5169 14.8342C31.2188 14.9924 30.896 15.2138 30.7627 15.5372C30.5382 16.075 30.9732 16.5812 31.3626 16.9045C31.9203 17.372 32.5798 17.713 33.2358 18.0153C33.9585 18.3422 34.7232 18.6726 35.502 18.8167C36.0948 18.9257 36.6701 18.8976 37.2454 18.7148C37.8698 18.5179 38.4837 18.2965 39.1046 18.0891C40.1009 17.7587 41.0796 17.5372 42.132 17.5337C43.9 17.5302 45.8995 17.9731 47.1484 19.3123C47.0221 19.3932 46.8291 19.2034 45.9136 18.6093C45.9136 18.6093 42.9388 16.1875 37.9084 19.6744C37.9084 19.6744 34.5197 22.504 30.461 21.5408C26.9671 20.7113 24.5431 19.2807 24.5431 19.2807C24.5431 19.2807 27.4617 15.7551 32.3939 14.4862V14.4897Z" fill="#767676"/>
</g>
<g style="mix-blend-mode:multiply" opacity="0.5">
<path d="M26.1463 17.7411C25.9955 17.9907 25.9043 18.2613 25.9499 18.539C26.0621 19.2244 26.9356 19.5689 27.4864 19.8185C28.3704 20.2121 29.2649 20.6023 30.2085 20.8413C31.3732 21.1331 32.5904 21.2034 33.7691 20.9187C34.9548 20.6304 36.0317 20.0575 37.1157 19.5162C38.1856 18.9819 39.2801 18.5179 40.4588 18.3105C39.68 18.6023 38.8276 19.0452 37.905 19.6849C37.905 19.6849 34.5163 22.5145 30.4576 21.5514C26.9637 20.7218 24.5397 19.2912 24.5397 19.2912C24.5397 19.2912 25.1009 18.6163 26.1428 17.7481L26.1463 17.7411Z" fill="#767676"/>
</g>
<g style="mix-blend-mode:screen" opacity="0.7">
<path d="M44.6928 17.6602C43.5527 17.3017 42.332 17.2525 41.2059 16.8412C40.136 16.4511 39.2941 15.6672 38.3048 15.1294C37.3507 14.6092 36.2492 14.3737 35.1652 14.3069C35.0039 14.2964 34.8425 14.2929 34.6811 14.2893C34.8074 14.2788 34.9372 14.2718 35.067 14.2647C35.067 14.2647 37.8242 14.0081 40.129 15.1857C41.4129 15.843 43.3633 16.8623 44.8016 17.6954C44.7665 17.6848 44.7314 17.6708 44.6963 17.6602H44.6928Z" fill="#767676"/>
</g>
<g style="mix-blend-mode:screen" opacity="0.7">
<path d="M39.7398 12.2366C39.7398 12.2366 38.091 4.09582 28.6441 3.98685C28.6441 3.98685 36.0915 3.6951 39.7398 12.2366Z" fill="#767676"/>
</g>
<path fill-rule="evenodd" clip-rule="evenodd" d="M29.2053 30.2793C29.0965 30.1668 29.0965 29.991 29.2053 29.8785C29.3175 29.7696 29.4929 29.7696 29.6052 29.8785C29.9384 30.2195 30.3348 30.4866 30.7698 30.6694C31.2013 30.8522 31.6714 30.9471 32.1484 30.9471C32.6255 30.9471 33.0956 30.8522 33.5271 30.6694C33.9621 30.4866 34.3585 30.2195 34.6917 29.8785C34.8005 29.7661 34.9794 29.7661 35.0916 29.8785C35.2039 29.9875 35.2039 30.1668 35.0916 30.2793C34.7022 30.6765 34.2427 30.9858 33.7446 31.1967C33.2429 31.4076 32.7027 31.5201 32.1484 31.5201C31.5942 31.5201 31.054 31.4076 30.5523 31.1967C30.0542 30.9858 29.5947 30.6765 29.2053 30.2793Z" fill="#BF5E23"/>
<path fill-rule="evenodd" clip-rule="evenodd" d="M30.7735 31.9769C30.7208 31.9242 30.7243 31.8399 30.7735 31.7906C30.8261 31.7379 30.9103 31.7414 30.9594 31.7906C31.1172 31.9488 31.2996 32.0754 31.5031 32.1597C31.7066 32.2441 31.9241 32.2898 32.1486 32.2898C32.3731 32.2898 32.5906 32.2441 32.794 32.1597C32.9975 32.0754 33.1799 31.9488 33.3378 31.7906C33.3904 31.7379 33.4711 31.7379 33.5237 31.7906C33.5763 31.8434 33.5763 31.9242 33.5237 31.9769C33.3413 32.1632 33.1273 32.3074 32.8958 32.4058C32.6607 32.5042 32.4082 32.5569 32.1486 32.5569C31.889 32.5569 31.6364 32.5042 31.4014 32.4058C31.1663 32.3074 30.9524 32.1632 30.7735 31.9769Z" fill="#BF5E23"/>
<path fill-rule="evenodd" clip-rule="evenodd" d="M32.3279 24.1071C32.328 24.1071 32.328 24.1071 32.5027 23.91C32.6774 23.7129 32.6774 23.7129 32.6775 23.713L32.6782 23.7136L32.6801 23.7153L32.6871 23.7216C32.6932 23.727 32.702 23.735 32.7132 23.7453C32.7358 23.7659 32.7685 23.7959 32.8094 23.8342C32.8912 23.9109 33.0062 24.021 33.1403 24.1558C33.4077 24.4246 33.7543 24.7949 34.0639 25.1954C34.3695 25.5909 34.6564 26.0376 34.7822 26.4574C34.8456 26.6693 34.8737 26.8924 34.8271 27.1064C34.7789 27.328 34.6547 27.5201 34.4508 27.6647L34.3768 27.7172L34.2864 27.7129L34.2859 27.7129L34.2835 27.7128L34.273 27.7124C34.2635 27.712 34.2492 27.7115 34.2309 27.711C34.1942 27.71 34.1412 27.709 34.0773 27.709C33.9487 27.7089 33.7789 27.7129 33.6092 27.7284C33.4359 27.7442 33.2787 27.7708 33.1676 27.8097C33.112 27.8292 33.0821 27.847 33.0693 27.8573C33.0669 27.8592 33.0659 27.8602 33.0659 27.8602C33.0659 27.8601 33.0772 27.8484 33.0814 27.8237L32.5625 27.7363C32.5844 27.6052 32.6605 27.5101 32.7397 27.4463C32.8168 27.3842 32.908 27.3421 32.994 27.312C33.166 27.2517 33.3739 27.2204 33.5614 27.2033C33.7526 27.1859 33.9396 27.1817 34.0775 27.1817C34.128 27.1818 34.1724 27.1824 34.2085 27.1831C34.2669 27.1257 34.2981 27.0628 34.313 26.9941C34.3342 26.8968 34.3262 26.7693 34.2782 26.609C34.181 26.2844 33.9429 25.9 33.6479 25.5183C33.3567 25.1415 33.0267 24.7884 32.7677 24.5281C32.6386 24.3983 32.528 24.2924 32.4499 24.2193C32.4109 24.1827 32.38 24.1543 32.3591 24.1353C32.3487 24.1257 32.3407 24.1185 32.3354 24.1138L32.3296 24.1085L32.3282 24.1073L32.3279 24.1071Z" fill="#BF5E23"/>
<path d="M33.1765 5.89197C33.1765 5.89197 33.6628 6.44533 34.5345 6.63051C35.674 6.87238 36.2721 6.22284 36.2721 6.22284C36.2721 6.22284 36.3616 7.38627 35.9612 9.09948C35.5121 11.0215 34.4306 11.9381 33.1757 12.7441C31.9209 11.9381 30.8394 11.0215 30.3903 9.09948C29.9906 7.38627 30.0802 6.22284 30.0802 6.22284C30.0802 6.22284 30.6789 6.87238 31.8178 6.63051C32.6901 6.44533 33.1765 5.89197 33.1765 5.89197Z" fill="#1F2020"/>
<path style="mix-blend-mode:screen" d="M33.1765 5.89197C33.1765 5.89197 33.6628 6.44533 34.5345 6.63051C35.674 6.87238 36.2721 6.22284 36.2721 6.22284C36.2721 6.22284 36.3616 7.38627 35.9612 9.09948C35.5121 11.0215 34.4306 11.9381 33.1757 12.7441C31.9209 11.9381 30.8394 11.0215 30.3903 9.09948C29.9906 7.38627 30.0802 6.22284 30.0802 6.22284C30.0802 6.22284 30.6789 6.87238 31.8178 6.63051C32.6901 6.44533 33.1765 5.89197 33.1765 5.89197Z" fill="url(#paint3_linear_1486_125296)"/>
<path style="mix-blend-mode:multiply" d="M33.1765 5.89197C33.1765 5.89197 33.6628 6.44533 34.5345 6.63051C35.674 6.87238 36.2721 6.22284 36.2721 6.22284C36.2721 6.22284 36.3616 7.38627 35.9612 9.09948C35.5121 11.0215 34.4306 11.9381 33.1757 12.7441C31.9209 11.9381 30.8394 11.0215 30.3903 9.09948C29.9906 7.38627 30.0802 6.22284 30.0802 6.22284C30.0802 6.22284 30.6789 6.87238 31.8178 6.63051C32.6901 6.44533 33.1765 5.89197 33.1765 5.89197Z" fill="url(#paint4_linear_1486_125296)"/>
<g style="mix-blend-mode:overlay">
<path d="M33.1766 6.29174C33.4209 6.49342 33.8621 6.78697 34.4737 6.91688C34.6621 6.95707 34.8498 6.97717 35.031 6.97717C35.4278 6.97717 35.7465 6.88099 35.9836 6.76831C35.9692 7.25636 35.9048 8.05375 35.6763 9.03201C35.2902 10.6849 34.4329 11.562 33.1759 12.3931C31.9189 11.562 31.0616 10.6849 30.6755 9.03201C30.447 8.05375 30.3826 7.25564 30.3683 6.76831C30.6053 6.88099 30.9241 6.97717 31.3209 6.97717C31.5021 6.97717 31.6897 6.95707 31.8781 6.91688C32.4905 6.78697 32.9317 6.4927 33.1752 6.29174M33.1752 5.89197C33.1752 5.89197 32.6889 6.44533 31.8172 6.63051C31.6381 6.66855 31.4727 6.68434 31.3209 6.68434C30.5058 6.68434 30.0803 6.22284 30.0803 6.22284C30.0803 6.22284 29.9908 7.38627 30.3912 9.09948C30.8403 11.0215 31.9218 11.9381 33.1766 12.7441C34.4315 11.9381 35.513 11.0215 35.9621 9.09948C36.3625 7.38627 36.2729 6.22284 36.2729 6.22284C36.2729 6.22284 35.8475 6.68434 35.0317 6.68434C34.8798 6.68434 34.7144 6.66855 34.5353 6.63051C33.663 6.44533 33.1766 5.89197 33.1766 5.89197H33.1752Z" fill="#5E5F5F"/>
</g>
<path style="mix-blend-mode:screen" opacity="0.11" d="M33.1933 6.29388C33.4375 6.49556 33.8787 6.78911 34.4904 6.91902C34.6787 6.95922 34.8664 6.97931 35.0476 6.97931C35.4444 6.97931 35.7631 6.88314 36.0002 6.77045C35.9859 7.25851 35.9214 8.0559 35.6929 9.03416C35.3069 10.6871 34.4495 11.5641 33.1925 12.3953C31.9355 11.5641 31.0782 10.6871 30.6922 9.03416C30.4637 8.0559 30.3992 7.25779 30.3849 6.77045C30.622 6.88314 30.9407 6.97931 31.3375 6.97931C31.5187 6.97931 31.7063 6.95922 31.8947 6.91902C32.5071 6.78911 32.9483 6.49485 33.1918 6.29388" fill="url(#paint5_linear_1486_125296)"/>
<path d="M33.1733 7.43213L32.119 8.09315L32.5788 8.3989L32.9212 8.18646V8.59843L33.419 8.90346V8.1678L33.7742 8.40465L34.2656 8.09961L33.1733 7.43213Z" fill="url(#paint6_linear_1486_125296)"/>
<path d="M32.9399 9.53363V10.1509L33.4069 10.425V9.82646L32.9399 9.53363Z" fill="url(#paint7_linear_1486_125296)"/>
<path d="M34.1476 8.62284L33.9234 8.47284L34.3718 8.16708L34.6454 8.32283V10.1186L34.4276 10.2621C34.4276 10.2621 34.3066 10.2528 34.2658 10.2119C34.2249 10.171 32.2123 8.92716 32.2123 8.92716V9.81283L33.662 10.7042L33.1735 11.0222L31.7081 10.1179V8.32786L31.9759 8.16565L34.1418 9.49416L34.1483 8.6214L34.1476 8.62284Z" fill="url(#paint8_linear_1486_125296)"/>
<rect x="16.957" y="21.4324" width="2.63672" height="2.625" rx="1.3125" fill="#CAC9C1"/>
<path d="M17.91 30.7545L16.9076 30.3985C16.7714 30.3501 16.6187 30.4197 16.5692 30.5528L16.5551 30.5908C16.5055 30.7239 16.5767 30.8729 16.713 30.9213L17.7154 31.2773C17.8517 31.3256 18.0043 31.2561 18.0538 31.123L18.068 31.085C18.1175 30.9519 18.0463 30.8028 17.91 30.7545Z" fill="#B1B0A6"/>
<path d="M17.6754 32.2192L16.6729 31.8634C16.5367 31.8151 16.3841 31.8847 16.3345 32.0178L16.3204 32.0558C16.2709 32.1889 16.3421 32.3379 16.4784 32.3863L17.4809 32.7421C17.6171 32.7904 17.7697 32.7208 17.8193 32.5877L17.8334 32.5497C17.8829 32.4166 17.8117 32.2676 17.6754 32.2192Z" fill="#B1B0A6"/>
<path d="M18.1333 29.3049L17.1308 28.9491C16.9946 28.9007 16.842 28.9703 16.7925 29.1034L16.7783 29.1414C16.7288 29.2745 16.8 29.4235 16.9363 29.4719L17.9388 29.8277C18.0751 29.876 18.2277 29.8065 18.2772 29.6734L18.2913 29.6353C18.3408 29.5023 18.2696 29.3532 18.1333 29.3049Z" fill="#B1B0A6"/>
<path d="M17.4506 33.6659L16.4481 33.3101C16.3119 33.2617 16.1593 33.3313 16.1098 33.4644L16.0956 33.5024C16.0461 33.6355 16.1174 33.7846 16.2536 33.8329L17.2561 34.1887C17.3924 34.2371 17.545 34.1675 17.5945 34.0344L17.6086 33.9964C17.6582 33.8633 17.5869 33.7142 17.4506 33.6659Z" fill="#B1B0A6"/>
<path d="M17.2486 35.082L16.2461 34.726C16.1099 34.6776 15.9573 34.7472 15.9077 34.8803L15.8936 34.9183C15.844 35.0514 15.9153 35.2004 16.0515 35.2488L17.054 35.6048C17.1902 35.6532 17.3428 35.5836 17.3924 35.4505L17.4065 35.4125C17.456 35.2794 17.3848 35.1304 17.2486 35.082Z" fill="#B1B0A6"/>
<path d="M18.1902 29.7957L17.0925 30.8678C16.9682 30.9891 16.7611 30.9891 16.6369 30.8678C16.5126 30.7464 16.5126 30.5441 16.6369 30.4228L17.7345 29.3507C17.8588 29.2293 18.0659 29.2293 18.1902 29.3507C18.3145 29.472 18.3145 29.6743 18.1902 29.7957Z" fill="#D5D4CD"/>
<path d="M17.0144 36.5614L16.0119 36.2056C15.8756 36.1572 15.723 36.2268 15.6735 36.3599L15.6594 36.3979C15.6099 36.531 15.6811 36.6801 15.8174 36.7284L16.8199 37.0842C16.9561 37.1326 17.1087 37.063 17.1582 36.9299L17.1724 36.8919C17.2219 36.7588 17.1506 36.6098 17.0144 36.5614Z" fill="#B1B0A6"/>
<path d="M17.9724 31.2419L16.8747 32.314C16.7504 32.4354 16.5433 32.4354 16.419 32.314C16.2948 32.1926 16.2948 31.9904 16.419 31.869L17.5167 30.7969C17.641 30.6755 17.8481 30.6755 17.9724 30.7969C18.0966 30.9183 18.0966 31.1205 17.9724 31.2419Z" fill="#D5D4CD"/>
<path d="M17.7343 32.7034L16.6366 33.7755C16.5123 33.8969 16.3052 33.8969 16.1809 33.7755C16.0567 33.6541 16.0567 33.4518 16.1809 33.3305L17.2786 32.2584C17.4029 32.137 17.61 32.137 17.7343 32.2584C17.8585 32.3798 17.8585 32.582 17.7343 32.7034Z" fill="#D5D4CD"/>
<path d="M17.5065 34.1548L16.4088 35.2268C16.2846 35.3482 16.0775 35.3482 15.9532 35.2268C15.8289 35.1055 15.8289 34.9032 15.9532 34.7818L17.0509 33.7097C17.1752 33.5884 17.3823 33.5884 17.5065 33.7097C17.6308 33.8311 17.6308 34.0334 17.5065 34.1548Z" fill="#D5D4CD"/>
<path d="M17.3099 35.5707L16.2122 36.6428C16.0879 36.7642 15.8808 36.7642 15.7565 36.6428C15.6323 36.5214 15.6323 36.3192 15.7565 36.1978L16.8542 35.1257C16.9785 35.0043 17.1856 35.0043 17.3099 35.1257C17.4341 35.2471 17.4341 35.4493 17.3099 35.5707Z" fill="#D5D4CD"/>
<path d="M17.946 28.3442C18.1324 28.3442 18.2826 28.1975 18.2826 28.0155V23.6361C18.2826 23.454 18.1324 23.3074 17.946 23.3074C17.7596 23.3074 17.6095 23.454 17.6095 23.6361V28.0155C17.6095 28.1975 17.7596 28.3442 17.946 28.3442Z" fill="#CAC9C1"/>
<path d="M18.4122 28.3694L17.3145 29.4415C17.1902 29.5629 16.9831 29.5629 16.8588 29.4415C16.7346 29.3201 16.7346 29.1179 16.8588 28.9965L17.9565 27.9244C18.0808 27.803 18.2879 27.803 18.4122 27.9244C18.5364 28.0458 18.5364 28.2481 18.4122 28.3694Z" fill="#D5D4CD"/>
</g>
</g>
<defs>
<radialGradient id="paint0_radial_1486_125296" cx="0" cy="0" r="1" gradientUnits="userSpaceOnUse" gradientTransform="translate(39 63.0574) rotate(-102.529) scale(62.2319)">
<stop stop-color="#8A0404"/>
<stop offset="0.760417" stop-color="#E04A4A"/>
</radialGradient>
<linearGradient id="paint1_linear_1486_125296" x1="28.125" y1="22.1489" x2="28.125" y2="20.1981" gradientUnits="userSpaceOnUse">
<stop stop-color="#FFC596"/>
<stop offset="0.5" stop-color="#FDC091"/>
<stop offset="1" stop-color="#FDAE91"/>
</linearGradient>
<linearGradient id="paint2_linear_1486_125296" x1="36.3755" y1="22.0365" x2="36.3755" y2="20.0856" gradientUnits="userSpaceOnUse">
<stop stop-color="#FFC596"/>
<stop offset="0.5" stop-color="#FDC091"/>
<stop offset="1" stop-color="#FDAE91"/>
</linearGradient>
<linearGradient id="paint3_linear_1486_125296" x1="30.0716" y1="9.31767" x2="36.2806" y2="9.31767" gradientUnits="userSpaceOnUse">
<stop offset="0.5" stop-color="#333333"/>
<stop offset="0.78" stop-color="#141414"/>
<stop offset="1" stop-color="#010101"/>
</linearGradient>
<linearGradient id="paint4_linear_1486_125296" x1="33.1765" y1="7.03171" x2="33.1765" y2="11.4285" gradientUnits="userSpaceOnUse">
<stop stop-color="white"/>
<stop offset="0.23" stop-color="#BABABA"/>
<stop offset="0.51" stop-color="#6B6B6B"/>
<stop offset="0.74" stop-color="#323232"/>
<stop offset="0.91" stop-color="#0E0E0E"/>
<stop offset="1" stop-color="#010101"/>
</linearGradient>
<linearGradient id="paint5_linear_1486_125296" x1="30.3856" y1="9.34493" x2="36.0009" y2="9.34493" gradientUnits="userSpaceOnUse">
<stop stop-color="#D2D3D4"/>
<stop offset="0.24" stop-color="#D0D1D2"/>
<stop offset="0.32" stop-color="#C9CACB"/>
<stop offset="0.38" stop-color="#BDBEC0"/>
<stop offset="0.43" stop-color="#ACADAF"/>
<stop offset="0.47" stop-color="#96979A"/>
<stop offset="0.5" stop-color="#818285"/>
<stop offset="0.68" stop-color="#A3A4A6"/>
<stop offset="0.89" stop-color="#C5C6C7"/>
<stop offset="1" stop-color="#D2D3D4"/>
</linearGradient>
<linearGradient id="paint6_linear_1486_125296" x1="32.119" y1="8.1678" x2="34.2656" y2="8.1678" gradientUnits="userSpaceOnUse">
<stop stop-color="#F7E57D"/>
<stop offset="0.14" stop-color="#D4B259"/>
<stop offset="0.27" stop-color="#BA8C3E"/>
<stop offset="0.36" stop-color="#AA762E"/>
<stop offset="0.43" stop-color="#A56E29"/>
<stop offset="0.48" stop-color="#A8722C"/>
<stop offset="0.53" stop-color="#B17F35"/>
<stop offset="0.58" stop-color="#BF9444"/>
<stop offset="0.64" stop-color="#D4B359"/>
<stop offset="0.69" stop-color="#EFD975"/>
<stop offset="0.71" stop-color="#F8E67E"/>
<stop offset="0.9" stop-color="#D6B650"/>
<stop offset="1" stop-color="#C9A33E"/>
</linearGradient>
<linearGradient id="paint7_linear_1486_125296" x1="32.9399" y1="9.97934" x2="33.4069" y2="9.97934" gradientUnits="userSpaceOnUse">
<stop stop-color="#F7E57D"/>
<stop offset="0.14" stop-color="#D4B259"/>
<stop offset="0.27" stop-color="#BA8C3E"/>
<stop offset="0.36" stop-color="#AA762E"/>
<stop offset="0.43" stop-color="#A56E29"/>
<stop offset="0.58" stop-color="#A7722A"/>
<stop offset="0.74" stop-color="#B07F2F"/>
<stop offset="0.91" stop-color="#BF9438"/>
<stop offset="1" stop-color="#C9A33E"/>
</linearGradient>
<linearGradient id="paint8_linear_1486_125296" x1="31.7081" y1="9.59607" x2="34.6454" y2="9.59607" gradientUnits="userSpaceOnUse">
<stop stop-color="#F7E57D"/>
<stop offset="0.14" stop-color="#D4B259"/>
<stop offset="0.27" stop-color="#BA8C3E"/>
<stop offset="0.36" stop-color="#AA762E"/>
<stop offset="0.43" stop-color="#A56E29"/>
<stop offset="0.48" stop-color="#A8722C"/>
<stop offset="0.53" stop-color="#B17F35"/>
<stop offset="0.58" stop-color="#BF9444"/>
<stop offset="0.64" stop-color="#D4B359"/>
<stop offset="0.69" stop-color="#EFD975"/>
<stop offset="0.71" stop-color="#F8E67E"/>
<stop offset="0.9" stop-color="#D6B650"/>
<stop offset="1" stop-color="#C9A33E"/>
</linearGradient>
<clipPath id="clip0_1486_125296">
<rect y="0.807373" width="68.8074" height="68.8074" rx="13.7615" fill="white"/>
</clipPath>
<clipPath id="clip1_1486_125296">
<rect width="67.5" height="115.5" fill="white" transform="translate(-1.5 -2.19263)"/>
</clipPath>
</defs>
</svg>
